<?xml version="1.0" encoding="UTF-8" standalone="no"?>
<svg width="301px" height="61px" viewBox="0 0 301 61" version="1.1" xmlns="http://www.w3.org/2000/svg" xmlns:xlink="http://www.w3.org/1999/xlink" xmlns:sketch="http://www.bohemiancoding.com/sketch/ns">
    <!-- Generator: Sketch 3.3.3 (12072) - http://www.bohemiancoding.com/sketch -->
    <title>bloomberg</title>
    <desc>Created with Sketch.</desc>
    <defs></defs>
    <g id="Page-1" stroke="none" stroke-width="1" fill="none" fill-rule="evenodd" sketch:type="MSPage">
        <g id="bloomberg" sketch:type="MSLayerGroup" transform="translate(-1.000000, 0.000000)">
            <path d="M8.897,7.813 L15.417,7.813 C21.376,7.813 24.002,9.696 24.002,13.521 C24.002,16.845 21.376,19.102 16.105,19.102 L8.897,19.102 L8.897,7.813 L8.897,7.813 Z M1,45.423 L16.98,45.423 C25.378,45.423 33.776,42.423 33.776,32.766 C33.776,27.058 29.774,22.676 24.197,22.042 L24.197,21.91 C28.76,20.543 31.907,17.22 31.907,12.204 C31.907,4.116 25.004,1.047 18.297,1.047 L1,1.047 L1,45.423 L1,45.423 Z M8.897,25.868 L16.479,25.868 C22.871,25.868 25.89,27.5 25.89,32.142 C25.89,37.963 20.236,38.657 16.164,38.657 L8.897,38.657 L8.897,25.868 L8.897,25.868 Z" id="Shape" fill="#FFFFFF" sketch:type="MSShapeGroup"></path>
            <path d="M42.706,45.423 L42.706,0" id="Shape" stroke="#FFFFFF" stroke-width="7.5" sketch:type="MSShapeGroup"></path>
            <path d="M59.011,30.382 C59.011,25.681 62.335,21.36 67.852,21.36 C73.369,21.36 76.683,25.682 76.683,30.382 C76.683,35.082 73.369,39.405 67.852,39.405 C62.334,39.405 59.011,35.083 59.011,30.382 M51.488,30.382 C51.488,39.847 58.755,46.171 67.852,46.171 C76.938,46.171 84.216,39.848 84.216,30.382 C84.216,20.916 76.939,14.584 67.852,14.584 C58.755,14.583 51.488,20.917 51.488,30.382 M95.131,30.382 C95.131,25.681 98.455,21.36 103.972,21.36 C109.489,21.36 112.803,25.682 112.803,30.382 C112.803,35.082 109.489,39.405 103.972,39.405 C98.455,39.405 95.131,35.083 95.131,30.382 M87.608,30.382 C87.608,39.847 94.876,46.171 103.972,46.171 C113.058,46.171 120.336,39.848 120.336,30.382 C120.336,20.916 113.059,14.584 103.972,14.584 C94.875,14.583 87.608,20.917 87.608,30.382" id="Shape" fill="#FFFFFF" sketch:type="MSShapeGroup"></path>
            <path d="M124.918,15.336 L132.067,15.336 L132.067,20.042 L132.185,20.042 C133.503,17.22 136.384,14.579 141.399,14.579 C146.041,14.579 149.247,16.393 150.81,20.16 C153.003,16.344 156.199,14.579 160.703,14.579 C168.727,14.579 171.551,20.292 171.551,27.501 L171.551,45.424 L164.028,45.424 L164.028,28.376 C164.028,24.619 162.907,21.359 158.452,21.359 C153.752,21.359 151.991,25.243 151.991,29.123 L151.991,45.423 L144.478,45.423 L144.478,27.5 C144.478,23.792 142.973,21.359 139.335,21.359 C134.388,21.359 132.441,24.983 132.441,29 L132.441,45.423 L124.918,45.423 L124.918,15.336 L124.918,15.336 Z M202.597,30.382 C202.597,35.088 199.283,39.405 193.756,39.405 C188.238,39.405 184.915,35.088 184.915,30.382 C184.915,25.681 188.238,21.349 193.756,21.349 C199.283,21.349 202.597,25.681 202.597,30.382 L202.597,30.382 Z M177.648,45.423 L184.797,45.423 L184.797,40.913 L184.915,40.913 C187.117,44.537 191.061,46.17 195.269,46.17 C204.533,46.17 210.119,39.276 210.119,30.381 C210.119,21.481 204.16,14.583 195.575,14.583 C189.939,14.583 186.921,17.209 185.357,19.166 L185.17,19.166 L185.17,0 L177.647,0 L177.647,45.423 L177.648,45.423 Z M221.045,27.373 C221.606,23.041 224.369,20.224 228.814,20.224 C233.515,20.224 236.396,22.983 236.465,27.373 L221.045,27.373 L221.045,27.373 Z M243.988,33.013 L243.988,30.948 C243.988,20.475 238.285,14.584 229.886,14.584 C220.78,14.584 213.522,20.917 213.522,30.382 C213.522,39.847 220.78,46.171 229.886,46.171 C234.636,46.171 239.1,44.48 242.601,40.162 L237.212,36.096 C235.334,38.403 232.885,40.162 229.128,40.162 C224.93,40.162 221.536,37.463 221.045,33.013 L243.988,33.013 L243.988,33.013 Z M248.885,15.336 L256.408,15.336 L256.408,20.101 L256.536,20.101 C258.168,16.654 261.482,14.579 265.435,14.579 C266.379,14.579 267.254,14.771 268.129,15.026 L268.129,22.294 C266.88,21.984 265.681,21.733 264.49,21.733 C257.41,21.733 256.407,27.692 256.407,29.325 L256.407,45.424 L248.884,45.424 L248.884,15.336 L248.885,15.336 Z M284.957,21.359 C290.405,21.359 293.856,24.983 293.856,30.199 C293.856,35.205 290.473,39.03 284.897,39.03 C279.823,39.03 276.056,35.082 276.056,30.317 C276.056,24.983 279.685,21.359 284.957,21.359 L284.957,21.359 Z M293.856,15.336 L293.856,19.85 L293.738,19.85 C291.536,16.211 287.583,14.579 283.384,14.579 C274.111,14.579 268.534,21.477 268.534,30.382 C268.534,38.898 274.493,45.797 283.512,45.797 C287.278,45.797 291.162,44.361 293.366,41.416 L293.473,41.416 L293.473,43.614 C293.473,49.563 291.231,53.704 283.954,53.704 C279.755,53.704 276.617,52.13 273.608,49.357 L269.104,55.512 C273.352,59.288 278.436,60.469 284.022,60.469 C295.745,60.469 301.005,53.566 301.005,42.728 L301.005,15.336 L293.856,15.336 L293.856,15.336 Z" id="Shape" fill="#FFFFFF" sketch:type="MSShapeGroup"></path>
        </g>
    </g>
</svg>