<?xml version="1.0" encoding="UTF-8" standalone="no"?>
<svg width="164px" height="78px" viewBox="0 0 164 78" version="1.1" xmlns="http://www.w3.org/2000/svg" xmlns:xlink="http://www.w3.org/1999/xlink" xmlns:sketch="http://www.bohemiancoding.com/sketch/ns">
    <!-- Generator: Sketch 3.3.3 (12072) - http://www.bohemiancoding.com/sketch -->
    <title>shape-flic-logo</title>
    <desc>Created with Sketch.</desc>
    <defs></defs>
    <g id="Page-1" stroke="none" stroke-width="1" fill="none" fill-rule="evenodd" sketch:type="MSPage">
        <g id="Artboard-1" sketch:type="MSArtboardGroup" transform="translate(-79.000000, -26.000000)" fill="#FFFFFF">
            <g id="flic" sketch:type="MSLayerGroup" transform="translate(79.000000, 26.000000)">
                <g id="shape-flic-logo" sketch:type="MSShapeGroup">
                    <g id="flic-logo-Page-1">
                        <g id="flic-logo-flic-logo">
                            <path d="M82.7410974,30.1557853 C82.6064414,29.4688111 82.4463539,28.7841193 82.2631173,28.1072525 C82.0022823,27.1460755 81.6938449,26.1966362 81.3413917,25.2641511 C80.8311332,23.9192207 80.2286044,22.6101551 79.540326,21.3464095 C78.5507833,19.5303459 77.3851769,17.8055746 76.0790457,16.1981789 C75.417829,15.3830696 74.7204215,14.6005646 73.9897575,13.8441431 C73.2512684,13.0844612 72.4795229,12.3541233 71.6797376,11.6563897 C70.8799523,10.9619165 70.050497,10.2967873 69.1978926,9.66752286 C68.3443101,9.03825845 67.4659483,8.44159841 66.5667197,7.88080318 C65.6727078,7.32326839 64.7588072,6.79833797 63.8269742,6.30927237 C62.901662,5.8234672 61.9606998,5.3702664 61.0034354,4.94966998 C60.0595388,4.53885487 59.1026004,4.1573837 58.1329463,3.8085169 C57.1792684,3.46617097 56.2141789,3.15316899 55.2409384,2.87277137 C54.2513956,2.58911332 53.2540278,2.3347992 52.249161,2.1163499 C51.0982266,1.86529622 49.9375109,1.65336779 48.7725567,1.48708549 C47.5531531,1.31102187 46.3304891,1.18288668 45.1045646,1.09909344 C43.9731928,1.02084294 42.8450815,0.981717694 41.7104493,0.981717694 C40.5790775,0.981717694 39.4444453,1.02084294 38.316334,1.09909344 C37.0871491,1.18288668 35.8644851,1.31102187 34.6483419,1.48708549 C33.4811054,1.65597614 32.3203897,1.86529622 31.1694553,2.11895825 C30.1636103,2.33740755 29.1675467,2.59106958 28.17833,2.87537972 C27.2047634,3.15577734 26.2416302,3.46780119 25.2863221,3.81112525 C24.3179722,4.15999205 23.3594036,4.54081113 22.415833,4.95227833 C21.4595467,5.37287475 20.5182584,5.82607555 19.5932724,6.31188072 C18.6607873,6.80094632 17.7452565,7.32587674 16.8518966,7.88341153 C15.9520159,8.44420676 15.0749583,9.0408668 14.2207237,9.67013121 C13.3664891,10.3013519 12.538338,10.9645249 11.7395308,11.6616064 C10.9374632,12.35934 10.1666958,13.0886998 9.42788072,13.8493598 C8.69754274,14.6041511 7.99980915,15.3882863 7.33696223,16.2033956 C6.03180915,17.8107913 4.8655507,19.5355626 3.87698608,21.3542346 C3.1890338,22.6192843 2.58585288,23.9267197 2.07722465,25.2723022 C1.72281511,26.2047873 1.41405169,27.1535746 1.15452087,28.1154036 C0.970306163,28.7925964 0.81217495,29.4772883 0.675236581,30.1642624 C0.306807157,32.0390139 0.117701789,33.9463698 0.117701789,36.9022823 L0.117701789,45.1133678 C0.117701789,46.9441034 0.367777336,48.7699483 0.841518887,50.5354751 C1.08605169,51.443833 1.38927237,52.3336064 1.7466163,53.2025129 C2.11178529,54.0926123 2.53368588,54.9566282 3.00286282,55.7945606 C3.49649304,56.6716183 4.04294235,57.5170497 4.63568986,58.332159 C5.24017495,59.1635706 5.89095825,59.9574871 6.58217097,60.7187992 C8.00502584,62.2821789 9.59155467,63.6946004 11.2895905,64.9619324 C13.0515308,66.2739324 14.9308469,67.4300835 16.884501,68.4375586 C18.6206839,69.3322227 20.4139245,70.110163 22.2469423,70.7818131 C24.376008,71.5643181 26.5572406,72.1968429 28.7687952,72.7009066 C29.900167,72.9552207 31.0396899,73.1785606 32.1857336,73.3627753 C33.1377813,73.5192763 34.0943936,73.6464334 35.0549185,73.755332 C36.4014791,73.9053121 37.7519523,74.0109503 39.1056859,74.0696382 C40.3185686,74.1218052 41.5327555,74.1368032 42.7475944,74.1165885 C44.1114354,74.0937654 45.4765805,74.0220358 46.836835,73.9062903 C49.0441511,73.7171849 51.2416859,73.4041829 53.4131372,72.9630457 C56.4323022,72.3500835 59.4058211,71.4925885 62.2723976,70.3612167 C63.6743857,69.8069423 65.0515944,69.193328 66.3935905,68.5060278 C67.6064732,67.8855666 68.7900119,67.2083738 69.9354036,66.4731451 C71.0374314,65.7623698 72.1068549,65.0007316 73.129002,64.1810577 C74.0892008,63.408334 75.0083181,62.58866 75.8762465,61.7138847 C76.4305209,61.1583062 76.9652326,60.5792525 77.4761431,59.979332 C77.9205408,59.4566839 78.3466799,58.9154513 78.7509742,58.3621551 C79.2661233,57.6546402 79.748668,56.9210417 80.1907833,56.1646203 C80.7170179,55.2614791 81.1884771,54.3267117 81.5940755,53.3652087 C82.1398728,52.062664 82.5656859,50.7089304 82.8526044,49.3242227 C83.1369145,47.9431014 83.2862425,46.5300278 83.2862425,45.114998 L83.2862425,36.9019563 C83.2862425,33.9460437 83.0994195,32.0390139 82.7319682,30.1649145 L82.7410974,30.1557853 L82.7410974,30.1557853 Z M80.2902266,44.2513082 C80.2902266,46.4814473 79.8761511,48.6763738 79.0506083,50.8351093 C78.5201352,52.2194911 77.832835,53.5422505 77.027833,54.7851292 C76.1279523,56.1753797 75.0793956,57.4619483 73.9255268,58.6493996 C72.644827,59.9666163 71.235666,61.1589583 69.7414076,62.2283817 C68.1053201,63.3988787 66.3701153,64.4259165 64.5703539,65.3225368 C62.6489781,66.2778449 60.6529384,67.0896938 58.614839,67.7613439 C56.5020755,68.4590775 54.343666,69.0100915 52.159173,69.424167 C49.9671809,69.841503 47.7510616,70.1219006 45.5258131,70.2718807 C43.3641431,70.4186004 41.1926918,70.438163 39.0277614,70.3370895 C36.9834672,70.2425368 34.9424334,70.0338688 32.9209622,69.7143459 C31.4896302,69.4861153 30.07134,69.1991968 28.662831,68.8601113 C27.0456541,68.4655984 25.4447793,67.992835 23.8732485,67.4353002 C22.2951968,66.8777654 20.7464891,66.2354592 19.240167,65.5051213 C17.756668,64.7845646 16.3122942,63.9727157 14.9298688,63.0695746 C13.6843817,62.2544652 12.4910616,61.3676262 11.3662107,60.3960159 C10.7819404,59.8883658 10.2152763,59.360501 9.6707833,58.809161 C8.62548708,57.750171 7.66235388,56.6116262 6.81561829,55.3889622 C6.0187674,54.2403101 5.32233797,53.0176461 4.75828231,51.7382505 C4.22683101,50.5296064 3.81275547,49.2687952 3.53822664,47.9789662 C3.27739165,46.7507594 3.14371372,45.4977734 3.14371372,44.2438091 L3.14371372,36.1416223 C3.14371372,33.5743539 3.27739165,32.0530338 3.5349662,30.5532326 C3.8055825,28.9970258 4.21313718,27.4655984 4.74784891,25.9794911 C5.30212326,24.4373042 5.99235785,22.9482624 6.79866402,21.5237773 C7.63137972,20.0565805 8.58733996,18.658831 9.64633002,17.3471571 C10.1856064,16.6787674 10.7525964,16.0312445 11.3417575,15.4071968 C11.8516899,14.8672684 12.3802068,14.3442942 12.9250258,13.8389264 C13.5640716,13.246505 14.2246362,12.6782107 14.9041113,12.1337177 C16.2702346,11.0414712 17.7146083,10.0457336 19.2163658,9.1504175 C20.7096461,8.26227435 22.2616143,7.47455268 23.8549901,6.78333996 C25.4167396,6.10842942 27.0208748,5.52937575 28.6510934,5.0422664 C30.0530815,4.62427833 31.4778926,4.2744334 32.9157455,3.99501392 C34.9339563,3.60376143 36.9789026,3.34944732 39.0313479,3.22946322 C39.9279682,3.17827435 40.8245885,3.1525169 41.7221869,3.1525169 C42.6188072,3.1525169 43.5154274,3.1786004 44.4120477,3.23011531 C46.4661233,3.34944732 48.5104175,3.60441352 50.5286282,3.995666 C51.9664811,4.27541153 53.3912922,4.62493042 54.7932803,5.04357058 C56.423499,5.53067992 58.0269821,6.1097336 59.5893837,6.78562227 C61.1837376,7.47553082 62.7350537,8.26357853 64.2273559,9.1526998 C65.7304175,10.0470378 67.1725089,11.0424493 68.5392843,12.1350219 C69.2194115,12.6795149 69.8809543,13.2474831 70.519674,13.8402306 C71.0631889,14.3449463 71.5913797,14.8672684 72.1009861,15.4075229 C72.6911252,16.0325487 73.2577893,16.6790934 73.7977177,17.3474831 C74.8567078,18.6601352 75.8142982,20.0569066 76.6440795,21.5241034 C77.4516899,22.9489145 78.1399682,24.4389344 78.6935905,25.9794911 C79.2283022,27.4652724 79.6358569,28.9970258 79.9064732,30.5532326 C80.1673082,32.0530338 80.2990298,33.5756581 80.2990298,36.1432525 L80.2990298,44.2464175 L80.2902266,44.2513082 L80.2902266,44.2513082 Z M73.6761034,22.3607316 C73.5228628,21.9668708 73.3533201,21.5788787 73.1730179,21.1967555 C72.8192604,20.4517455 72.4139881,19.7315149 71.9705686,19.0367157 C71.5532326,18.3839761 71.1032922,17.7560159 70.6207475,17.1534871 C70.3990378,16.8796103 70.1708072,16.608994 69.9360557,16.3448986 C69.5578449,15.9210417 69.163332,15.5134871 68.7525169,15.1222346 C68.5275467,14.9070457 68.2993161,14.6983777 68.067825,14.4929702 C67.6570099,14.1278012 67.239674,13.7691531 66.8125567,13.4235467 C65.8865924,12.6736461 64.9247634,11.9759125 63.9270696,11.323825 C62.8804692,10.6391332 61.798004,10.0131292 60.687173,9.43929225 C59.7497972,8.95674751 58.7928588,8.5123499 57.8192922,8.10577336 C56.632493,7.61214314 55.4205885,7.17654871 54.1923817,6.79833797 C51.7327078,6.04093837 49.2026083,5.51698608 46.6464254,5.2219165 C45.0054473,5.03281113 43.355666,4.93825845 41.7045805,4.93825845 C40.053495,4.93825845 38.4017575,5.03281113 36.7617575,5.2219165 C34.2062266,5.51698608 31.6754751,6.04028628 29.214497,6.79866402 C26.9810974,7.4866163 24.8031252,8.36563022 22.7229662,9.43961829 C21.6121352,10.0144334 20.5286918,10.6427197 19.4820915,11.3267594 C18.4857018,11.9772167 17.5225686,12.6765805 16.5975825,13.4264811 C16.1724215,13.7720875 15.7541074,14.1297575 15.3442704,14.4959046 C15.1127793,14.7026163 14.8845487,14.9112843 14.6605567,15.1267992 C14.2516978,15.5180517 13.8568588,15.9278887 13.4802783,16.3517455 C13.2455268,16.615841 13.0172962,16.8838489 12.7955865,17.160334 C12.3130417,17.7602545 11.8617972,18.3895189 11.4457654,19.0425845 C11.0023459,19.7370577 10.5967475,20.4576143 10.242664,21.2026243 C10.06334,21.5840954 9.8944493,21.9720875 9.74055666,22.3666004 C9.45200795,23.1086759 9.21562624,23.8716183 9.04282306,24.6489066 C8.89675547,25.3140358 8.79829026,25.9922068 8.76372962,26.67266 C8.73764612,27.1812883 8.74742744,27.6931769 8.79470378,28.1985447 C8.80774553,28.3247237 8.82143936,28.4495984 8.83708946,28.573495 C8.91207952,29.1668946 9.02293439,29.7563817 9.16639364,30.3373917 C9.4702664,31.5613598 9.92020676,32.7488111 10.4907833,33.8717058 C11.1102664,35.0920875 11.8699483,36.2355229 12.7274433,37.2967952 C13.656668,38.4444692 14.6983777,39.4975905 15.8202942,40.456159 C17.0136143,41.4734155 18.2959443,42.3830775 19.635006,43.1981869 C21.0272127,44.0459006 22.4813678,44.7860199 23.9769304,45.4315865 C25.4897734,46.083674 27.0417416,46.6346879 28.6210974,47.0966918 C30.1782823,47.5498926 31.7589423,47.9193002 33.3552525,48.2019801 C36.0920636,48.6861551 38.875173,48.9271014 41.7026243,48.9271014 C44.5300755,48.9271014 47.3115547,48.685829 50.0493439,48.2000239 C51.6446759,47.9183221 53.2266402,47.5479364 54.783499,47.0947356 C56.3615507,46.6337097 57.9154751,46.0830219 59.4270139,45.4286521 C60.9202942,44.7850417 62.3757535,44.0445964 63.7699165,43.1985129 C65.108326,42.3834036 66.3913082,41.4737416 67.5846282,40.4532247 C68.7062187,39.4966123 69.7495586,38.4447952 70.6774791,37.2971213 C71.5349742,36.2355229 72.2946561,35.0898052 72.9141392,33.8717058 C73.4847157,32.7488111 73.9379165,31.5616859 74.2404851,30.3373917 C74.3839443,29.7563817 74.4947992,29.1668946 74.5671809,28.573495 C74.5834831,28.4495984 74.5981551,28.3247237 74.6095666,28.1991968 C74.6584732,27.6921988 74.6676024,27.1806362 74.642171,26.672008 C74.6063062,25.9905765 74.508493,25.3143618 74.3617734,24.6492326 C74.1906004,23.8706402 73.9535666,23.1080239 73.6640398,22.3659483 L73.6761034,22.3607316 L73.6761034,22.3607316 Z M72.5131054,27.8382664 C72.4681113,28.1806123 72.4087714,28.5223062 72.3370417,28.8607396 C72.2770497,29.1427674 72.2079284,29.4247952 72.1309821,29.7038887 C72.085336,29.8708231 72.0364294,30.0364533 71.9842624,30.2014314 C71.8081988,30.7537495 71.5995308,31.2946561 71.3582584,31.8228469 C71.1104652,32.3689702 70.8300676,32.9010736 70.5235865,33.4162227 C70.2040636,33.955825 69.8486759,34.4778211 69.4737256,34.9799284 C68.7042624,36.0108787 67.8304652,36.9616223 66.8849384,37.8334632 C66.4284771,38.2540596 65.9557137,38.6563976 65.4699085,39.0430855 C64.9306322,39.4688986 64.3744016,39.8738449 63.8051292,40.2585765 C62.8596024,40.8969702 61.8765805,41.4792843 60.8674751,42.0094314 C59.897495,42.5147992 58.9046918,42.9738688 57.8906958,43.3866402 C56.0925646,44.1221948 54.2373757,44.712334 52.3512127,45.1733598 C51.3274354,45.4244135 50.2971372,45.6350378 49.2590139,45.8091451 C48.3385924,45.9656461 47.4126282,46.091499 46.4843817,46.1863777 C45.0791332,46.3347276 43.6673638,46.4146083 42.2555944,46.4296064 C41.9002068,46.4348231 41.5480795,46.4348231 41.1926918,46.4296064 C40.0841431,46.4165646 38.9755944,46.3653757 37.8703062,46.2731054 C36.3281193,46.1449702 34.7957137,45.9372803 33.2763499,45.6477535 C32.0732485,45.4227833 30.8799284,45.1423857 29.7012803,44.8124294 C29.1033161,44.6428867 28.5079602,44.4609543 27.9178211,44.2633718 C27.3635467,44.0775268 26.8125328,43.8786402 26.2647793,43.6732326 C25.0290736,43.1939483 23.8161909,42.6559761 22.6404771,42.0430139 C21.7683101,41.5865527 20.9157058,41.0942266 20.0917932,40.5595149 C19.3376541,40.0704493 18.6050338,39.5455189 17.9007793,38.9847237 C17.3582425,38.5510855 16.83266,38.0946243 16.3276183,37.61534 C15.833336,37.1490974 15.3592684,36.6567714 14.909328,36.1416223 C14.4809066,35.6502744 14.0746561,35.1390378 13.6964453,34.6069344 C13.3377972,34.1028708 13.0039284,33.5808748 12.7000557,33.0429026 C12.4163976,32.5385129 12.1588231,32.0178211 11.9315706,31.4860437 C11.8207157,31.2252087 11.7176859,30.9611133 11.621829,30.6947356 C11.4666322,30.2650099 11.3316501,29.8290895 11.2207952,29.3873002 C11.152326,29.117662 11.092334,28.8460676 11.039841,28.5728429 C11.002672,28.3788469 10.9697416,28.1815905 10.9413757,27.9849861 C10.8872525,27.5963419 10.8487793,27.2057416 10.8403022,26.8135109 C10.8357376,26.5931054 10.8396501,26.3733519 10.8523658,26.1516421 C10.8676899,25.874505 10.8957296,25.5973678 10.935833,25.3218608 C10.973328,25.0577654 11.0206044,24.7949742 11.0760318,24.5334871 C11.1640636,24.1291928 11.2716581,23.7314195 11.3955547,23.3382107 C11.4966282,23.0252087 11.6074831,22.7154672 11.7274672,22.4089861 C11.8578847,22.0787038 12.0013439,21.7536382 12.1536064,21.4308549 C12.4633479,20.7787674 12.814171,20.1462425 13.2002068,19.5358887 C13.5881988,18.9229264 14.0100994,18.3327873 14.4642783,17.7687316 C14.8327078,17.3070537 15.2206998,16.8655905 15.6305368,16.4417336 C15.9053917,16.1580755 16.191332,15.8819165 16.4815109,15.6135825 C16.8499404,15.2712366 17.2294553,14.938672 17.6161431,14.6158887 C18.3575666,13.9931451 19.1289861,13.4062664 19.9225765,12.851992 C21.0213439,12.0923101 22.1722783,11.3919682 23.3558171,10.7587913 C25.0293996,9.86543141 26.7727555,9.1057495 28.5620835,8.48039761 C29.6487873,8.1008827 30.7530974,7.77157853 31.868167,7.49052883 C33.0712684,7.18665606 34.2893678,6.94049304 35.5149662,6.75106163 C37.16866,6.49348708 38.8389821,6.34350696 40.5115865,6.2946004 C41.13433,6.27503777 41.7577256,6.27177734 42.3804692,6.28155865 C43.7889781,6.30438171 45.196835,6.39893439 46.5955626,6.56847714 C47.775841,6.70867594 48.9515547,6.90430219 50.1155308,7.15209543 C51.2240795,7.38684692 52.323825,7.67050497 53.4085726,7.99980915 C54.4356103,8.31281113 55.4505845,8.66819881 56.4473002,9.0692326 C57.3233797,9.4180994 58.1844612,9.80283101 59.0305447,10.2169066 C60.0249781,10.7059722 60.9949583,11.2406839 61.9372247,11.8210417 C62.871666,12.3948787 63.7777416,13.0143618 64.6508867,13.6794911 C65.2530895,14.1392127 65.8399682,14.6201272 66.4105447,15.1206044 C66.710505,15.3846998 67.0065527,15.6553161 67.2951014,15.9324533 C67.6260358,16.2519761 67.9465368,16.5812803 68.2553002,16.9223221 C68.6889384,17.4029105 69.0977972,17.9053439 69.4812247,18.42734 C69.9246441,19.0305209 70.333503,19.6584811 70.7025845,20.3099165 C70.8903857,20.6441113 71.0697097,20.9838489 71.2372962,21.327173 C71.4016223,21.6695189 71.5545368,22.0183857 71.6957137,22.3721431 C71.8287396,22.7047078 71.9493757,23.0450974 72.0582744,23.3893996 C72.1593479,23.7121829 72.2486839,24.0382266 72.324326,24.3694871 C72.3960557,24.6775984 72.4547435,24.987992 72.5003897,25.300668 C72.5395149,25.5582425 72.5655984,25.8158171 72.5819006,26.0743698 C72.6047237,26.4134553 72.6079841,26.7558012 72.5884215,27.0958648 C72.5753797,27.3403976 72.5492962,27.5849304 72.5199523,27.8294632 L72.5131054,27.8382664 L72.5131054,27.8382664 Z" id="flic-logo-button"></path>
                            <path d="M160.2906,14.8578131 C158.403785,14.8578131 156.870402,16.4006521 156.870402,18.2877932 C156.870402,20.1746083 158.403785,21.7092962 160.2906,21.7092962 C162.177742,21.7092962 163.720581,20.1746083 163.720581,18.2881193 C163.720581,16.4035865 162.177742,14.8581392 160.2906,14.8581392 L160.2906,14.8578131 L160.2906,14.8578131 Z M160.2906,21.1374155 C158.721678,21.1374155 157.442282,19.8606282 157.442282,18.2877932 C157.442282,16.705829 158.721678,15.4394751 160.2906,15.4394751 C161.875173,15.4394751 163.141527,16.705829 163.141527,18.2881193 C163.141527,19.8629105 161.875173,21.1377416 160.2906,21.1377416 L160.2906,21.1374155 L160.2906,21.1374155 Z M161.808008,17.6021233 C161.808008,16.8880875 161.226346,16.53433 160.63425,16.53433 L159.280517,16.53433 C159.178139,16.53433 159.101193,16.6213837 159.101193,16.7162624 L159.101193,19.8417177 C159.101193,19.9362704 159.177813,20.0223459 159.280517,20.0223459 L159.529288,20.0223459 C159.6346,20.0223459 159.711873,19.9365964 159.711873,19.8417177 L159.711873,18.6986083 L160.416127,18.6986083 C160.593495,19.0957296 160.772819,19.4931769 160.949861,19.888668 C160.978553,19.9467038 161.044414,20.0223459 161.121686,20.0223459 L161.444469,20.0223459 C161.577495,20.0223459 161.674982,19.8801909 161.608469,19.7647714 C161.416103,19.3930815 161.226346,19.0122624 161.03398,18.6405726 C161.300684,18.5740596 161.808008,18.3177893 161.808008,17.6021233 L161.808008,17.6021233 L161.808008,17.6021233 Z M160.63425,18.1459642 L159.701113,18.1459642 L159.701113,17.0602386 L160.63425,17.0602386 C160.988334,17.0602386 161.20874,17.2780358 161.20874,17.6024493 C161.20874,17.898171 160.98703,18.1459642 160.631642,18.1459642 L160.63425,18.1459642 L160.63425,18.1459642 Z" id="flic-logo-r"></path>
                            <path d="M158.664946,44.0664414 C157.844294,44.0664414 157.178187,44.7305924 157.178187,45.5532008 C157.178187,46.0507435 157.172644,46.5482863 157.131563,47.0432207 C157.111348,47.3073161 157.078091,47.5681511 157.03375,47.8273559 C156.957455,48.2968588 156.839427,48.7608191 156.675101,49.2065209 C156.50132,49.6809145 156.275046,50.1344414 155.983237,50.5498211 C155.715881,50.9312922 155.393097,51.280159 155.019125,51.5677296 C154.670258,51.8370417 154.280962,52.0522306 153.86493,52.1989503 C153.460636,52.3398012 153.032215,52.4108787 152.604445,52.4108787 C152.177328,52.4108787 151.750211,52.3391491 151.345917,52.1989503 C150.928581,52.0522306 150.534068,51.8370417 150.185201,51.5677296 C149.813511,51.2808111 149.490728,50.9319443 149.220111,50.5504732 C148.929932,50.1344414 148.701702,49.6809145 148.525638,49.2065209 C148.360334,48.7608191 148.245241,48.2968588 148.167968,47.8273559 C148.124278,47.5681511 148.092978,47.3069901 148.073416,47.0428946 C148.050592,46.7885805 148.037551,46.5329622 148.032008,46.2786481 C148.026791,46.0380278 148.024509,45.7947992 148.024509,45.5532008 L148.024509,37.1210577 C148.024509,36.7161113 148.027769,36.3124692 148.053853,35.9094791 C148.079284,35.4791014 148.125583,35.0497018 148.208398,34.626497 C148.289909,34.2019881 148.40272,33.7826958 148.559221,33.3803579 C148.70431,32.9930179 148.891785,32.6190457 149.120016,32.2727873 C149.330314,31.9444612 149.58202,31.6422187 149.866656,31.3755149 C150.049241,31.2059722 150.242584,31.0527316 150.450274,30.9157932 C150.750235,30.720167 151.076278,30.563666 151.416994,30.4528111 C151.750863,30.3452167 152.100056,30.2832684 152.447292,30.2702266 C152.796159,30.2571849 153.151547,30.2930497 153.489654,30.3745606 C153.832978,30.459332 154.168803,30.5897495 154.478871,30.7625527 C154.801654,30.9418767 155.103897,31.1635865 155.370274,31.421161 C155.96237,31.9907594 156.903658,31.9715229 157.473256,31.3777972 C158.043833,30.7843976 158.02264,29.8421312 157.432501,29.2748151 C156.828016,28.6944573 156.125066,28.2184334 155.36408,27.8813042 C154.605702,27.5454791 153.782767,27.3465924 152.956899,27.3025765 C152.125487,27.2595388 151.290815,27.3710457 150.500485,27.6253598 C149.711459,27.8829344 148.962863,28.2849463 148.311427,28.8010736 C147.649559,29.3211133 147.085503,29.952008 146.625781,30.6556103 C146.172581,31.3500835 145.823714,32.1130258 145.577225,32.9053121 C145.344755,33.6542346 145.199014,34.4279364 145.124024,35.2071809 C145.091419,35.5550696 145.070553,35.9016541 145.060445,36.2505209 C145.052294,36.5433082 145.050664,36.8341392 145.050664,37.130839 L145.050664,45.56233 C145.050664,46.0601988 145.044143,46.5567634 145.003388,47.0523499 C144.983825,47.3164453 144.952525,47.5772803 144.905575,47.8368111 C144.82928,48.3063141 144.713209,48.7699483 144.550187,49.2159761 C144.375427,49.6900437 144.147523,50.1435706 143.85767,50.5592763 C143.587054,50.9407475 143.26427,51.2896143 142.895841,51.5765328 C142.544366,51.8458449 142.152461,52.0610338 141.736429,52.2077535 C141.330505,52.3479523 140.905018,52.4196819 140.477901,52.4196819 C140.048827,52.4196819 139.623666,52.3479523 139.219372,52.2077535 C138.803014,52.0610338 138.410783,51.8458449 138.061917,51.5765328 C137.690227,51.2896143 137.366465,50.9407475 137.097479,50.5592763 C136.807952,50.1432445 136.579722,49.6897177 136.405614,49.2153241 C136.244549,48.7709264 136.126847,48.305662 136.049575,47.836159 C136.00295,47.5785845 135.972302,47.3170974 135.951761,47.053002 C135.931221,46.7986879 135.918179,46.5430696 135.91068,46.2887555 C135.905463,46.0491133 135.905463,45.8062107 135.905463,45.5649384 L135.905463,28.7867276 C135.905463,27.9650974 135.240334,27.298338 134.418704,27.298338 C133.593813,27.298338 132.928684,27.9644453 132.928684,28.7850974 L132.928684,45.5600477 C132.928684,46.0556342 132.925423,46.5544811 132.883038,47.0484374 C132.860215,47.3125328 132.830219,47.5733678 132.785225,47.8328986 C132.706974,48.3024016 132.592859,48.7663618 132.429837,49.2120636 C132.25573,49.6864573 132.027499,50.1399841 131.737646,50.5553638 C131.465726,50.936835 131.142942,51.2857018 130.773535,51.5726203 C130.424668,51.8432366 130.032111,52.0584254 129.614123,52.2051451 C129.211133,52.3453439 128.782712,52.4170736 128.357225,52.4170736 C127.927825,52.4170736 127.49973,52.3453439 127.095435,52.2051451 C126.679404,52.0584254 126.290107,51.8432366 125.941241,51.5726203 C125.56629,51.2857018 125.243507,50.936835 124.976151,50.5553638 C124.684016,50.1396581 124.457742,49.6861312 124.284938,49.2120636 C124.11996,48.7653837 124.002258,48.3024016 123.924986,47.8328986 C123.881948,47.5733678 123.849996,47.3122068 123.827173,47.0481113 C123.80761,46.7937972 123.796851,46.5368748 123.788048,46.2825606 C123.781527,46.0412883 123.781527,45.7977336 123.781527,45.5561352 L123.781527,24.7075944 C124.325368,24.2739563 124.844429,23.8119523 125.340016,23.325169 C125.959499,22.7122068 126.539857,22.0555547 127.071308,21.364668 C127.60602,20.6669344 128.098346,19.933336 128.540135,19.1713718 C128.991054,18.3921272 129.391109,17.5819085 129.744541,16.7521272 C129.751062,16.7309344 129.759213,16.7074592 129.770624,16.6859404 C129.90528,16.3142505 130.03472,15.9386481 130.154052,15.5604374 C130.333376,14.9849702 130.494767,14.4042863 130.638227,13.8183857 C130.756581,13.3309503 130.861893,12.8428628 130.954489,12.3511889 C131.092406,11.6045487 131.200326,10.8520398 131.277272,10.0969225 C131.352262,9.33398012 131.392366,8.56777734 131.384867,7.80157455 C131.379324,7.07547515 131.3327,6.3490497 131.235865,5.62947117 C131.143268,4.96760239 131.004374,4.31127634 130.794402,3.67320875 C130.684199,3.33021074 130.553129,2.99177734 130.394672,2.6657336 C130.265885,2.39837773 130.120795,2.13754274 129.953535,1.89203181 C129.789861,1.65336779 129.607928,1.42578926 129.405129,1.22038171 C129.2007,1.01236581 128.978012,0.826520875 128.733479,0.670019881 C128.51503,0.530799205 128.282235,0.414075547 128.041288,0.329304175 C127.75763,0.228230616 127.460278,0.167586481 127.160318,0.152262425 C126.857097,0.135960239 126.554855,0.164326044 126.262394,0.232143141 C126.021121,0.288874751 125.785392,0.37071173 125.559769,0.477328032 C125.298934,0.601224652 125.046577,0.755769384 124.81639,0.931180915 C124.580008,1.1092008 124.359928,1.31102187 124.157781,1.52588469 C123.946505,1.74987674 123.754465,1.98951889 123.574815,2.23992048 C123.187475,2.78115308 122.869583,3.36900994 122.599944,3.97642942 C122.45192,4.30736382 122.318569,4.64481909 122.19565,4.98553479 C121.959594,5.65392445 121.765272,6.33535586 121.605511,7.02656859 C121.413145,7.84819881 121.267404,8.68287078 121.154266,9.51754274 C121.066235,10.1565885 120.99907,10.7988946 120.952119,11.4444612 C120.881368,12.314998 120.845503,13.1855348 120.824962,14.059332 C120.8054,14.9005249 120.8054,15.7397614 120.8054,16.5796501 L120.8054,23.2081193 C120.423928,23.4640636 120.032676,23.7059881 119.635555,23.9332406 C119.174529,24.1960318 118.70307,24.4405646 118.220525,24.666839 C117.462147,25.0215746 116.684859,25.3319682 115.892573,25.6025845 C114.200406,26.1796819 112.449551,26.5728907 110.680763,26.8369861 L110.680763,11.4604374 C110.680763,9.50906561 110.93899,7.81200795 111.430664,6.35557058 C111.92299,4.89815507 112.640286,3.68201193 113.600159,2.64519284 C114.157694,2.04201193 114.122807,1.09974553 113.521909,0.542210736 C112.918076,-0.0172803181 111.976461,0.018584493 111.417948,0.62111332 C110.165288,1.97223857 109.226934,3.58224254 108.610712,5.40091451 C107.996445,7.22023857 107.70431,9.24333996 107.70431,11.4588072 L107.70431,27.1594433 C106.493384,27.2494314 105.283435,27.2892087 104.068922,27.2892087 C103.247292,27.2892087 102.582163,27.9556421 102.582163,28.7769463 C102.582163,29.3605646 102.921249,29.8920159 103.4527,30.1332883 C104.08392,30.4202068 104.693948,30.7429901 105.283435,31.1048986 C105.852382,31.4537654 106.398505,31.838497 106.916915,32.255833 C107.185575,32.4775427 107.449996,32.7057734 107.703658,32.9405249 L107.703658,69.6755467 C107.703658,70.0472366 107.708549,70.415666 107.723221,70.7850736 C107.743761,71.2138211 107.780278,71.6419165 107.847117,72.0654473 C107.913304,72.5134314 108.01666,72.9555467 108.149034,73.3872286 C108.289233,73.8267356 108.465296,74.254505 108.686028,74.6587992 C108.904477,75.0643976 109.171181,75.4439125 109.475054,75.7878887 C109.778274,76.1286044 110.123881,76.4360636 110.502091,76.6871173 C110.883563,76.9368668 111.297638,77.1337972 111.731276,77.2674751 C112.161654,77.3995229 112.614855,77.4728827 113.068056,77.4741869 C113.521256,77.4754911 113.971197,77.4089781 114.407117,77.2785606 C114.839125,77.1481431 115.258091,76.9557773 115.636302,76.7112445 C116.021034,76.4634513 116.369901,76.1634911 116.67736,75.8244056 C116.990362,75.4853201 117.259348,75.1071093 117.487579,74.7060755 C117.712549,74.3017813 117.895133,73.8779245 118.040875,73.4377654 C118.184334,73.0073877 118.291928,72.5649463 118.370179,72.1205487 C118.441909,71.6934314 118.48299,71.2663141 118.508421,70.8365885 C118.531245,70.4658767 118.538744,70.0941869 118.544286,69.7247793 C118.571674,67.0968668 118.569066,64.4689543 118.51266,61.8410417 C118.460493,59.4544016 118.36268,57.064501 118.186616,54.6834036 C118.024573,52.532493 117.805145,50.3838648 117.475841,48.2538211 C117.179141,46.3311412 116.7993,44.4237853 116.286759,42.5496859 C115.819865,40.8477376 115.246028,39.1751332 114.513082,37.570998 C113.836541,36.087499 113.023062,34.6594274 112.047213,33.3500358 C111.622378,32.7794592 111.168525,32.2317058 110.681089,31.7100358 L110.681089,29.8398489 C110.760644,29.8300676 110.83759,29.8170258 110.917471,29.8059404 C112.935682,29.5157614 114.931722,29.0723419 116.857988,28.4137336 C118.218895,27.9487952 119.544588,27.3769145 120.806378,26.6847237 L120.806378,45.554505 C120.806378,45.8241431 120.806378,46.0905209 120.810942,46.359833 C120.820724,46.6751173 120.837026,46.9884453 120.861479,47.3011213 C120.890171,47.6447714 120.931252,47.9858131 120.987658,48.328159 C121.036565,48.6150775 121.095252,48.901996 121.166982,49.1889145 C121.256318,49.5508231 121.363913,49.9029503 121.493026,50.2518171 C121.757121,50.9658529 122.102728,51.6479364 122.54093,52.2700278 C122.981089,52.8960318 123.513845,53.4574791 124.122243,53.9269821 C124.425463,54.1633638 124.741726,54.373662 125.078203,54.5555944 C125.41468,54.7375268 125.762895,54.8914195 126.121543,55.0153161 C126.838839,55.2598489 127.592978,55.3918966 128.351682,55.3918966 C129.104843,55.3918966 129.864525,55.2647396 130.57693,55.0156421 C131.300748,54.7678489 131.97794,54.3984414 132.582099,53.9321988 C133.187563,53.4626958 133.719992,52.8953797 134.162107,52.271332 C134.250139,52.1490656 134.33165,52.0235388 134.412183,51.8950775 C134.491085,52.0238648 134.572922,52.1493917 134.659976,52.2719841 C135.101765,52.9005964 135.634847,53.4620437 136.242592,53.9315467 C136.545161,54.1672763 136.865336,54.3772485 137.198879,54.559507 C137.534704,54.7420915 137.884875,54.895332 138.243849,55.0192286 C138.959515,55.2637614 139.715936,55.3941789 140.472032,55.3941789 C141.228453,55.3941789 141.984875,55.2670219 142.700541,55.0192286 C143.421097,54.768175 144.100573,54.3997455 144.702449,53.933503 C145.312151,53.464 145.84132,52.8966839 146.285066,52.2706799 C146.369837,52.1474354 146.454608,52.0228867 146.532859,51.8934473 C146.61437,52.0219085 146.695881,52.1477614 146.783913,52.2700278 C147.226028,52.8986402 147.758783,53.4600875 148.36392,53.9295905 C148.667141,54.1659722 148.986664,54.3762704 149.322489,54.5582028 C149.656032,54.7407873 150.007181,54.8940278 150.369089,55.0179245 C151.081821,55.2624573 151.841503,55.3935268 152.595968,55.3935268 C153.35402,55.3935268 154.108811,55.2657177 154.826107,55.0169463 C155.543404,54.7675229 156.223205,54.3984414 156.825734,53.9321988 C157.435435,53.4626958 157.963626,52.8966839 158.407046,52.271332 C158.628755,51.95833 158.825686,51.6309821 159.002076,51.2899404 C159.174879,50.9541153 159.325837,50.6085089 159.456254,50.2531213 C159.687093,49.6303777 159.850767,48.9848111 159.961622,48.3314195 C160.018028,47.9900517 160.059435,47.6499881 160.086823,47.3060119 C160.112907,46.9930099 160.131165,46.680008 160.138338,46.3650497 C160.144207,46.0944334 160.144207,45.8280557 160.144207,45.5597217 C160.144207,44.7354831 159.480708,44.0729622 158.657447,44.0729622 L158.664946,44.0664414 L158.664946,44.0664414 Z M123.793264,16.5701948 C123.793264,15.7779085 123.798481,14.98334 123.816087,14.1910537 C123.834346,13.3707276 123.86695,12.5510537 123.928899,11.733662 C123.987586,10.9387674 124.072358,10.1477853 124.196254,9.36071571 C124.307109,8.64015905 124.450569,7.92384095 124.633153,7.21860835 C124.75705,6.73280318 124.903769,6.25221471 125.079833,5.7817336 C125.177646,5.52089861 125.285241,5.26397614 125.405877,5.00998807 C125.510211,4.7895825 125.621066,4.57406759 125.744962,4.36442147 C125.847014,4.18835785 125.963412,4.01783698 126.085678,3.85416302 C126.185773,3.72700596 126.291085,3.60310934 126.405853,3.48899404 C126.490624,3.4074831 126.579308,3.3292326 126.676469,3.26402386 C126.737439,3.22163817 126.799062,3.18577336 126.871117,3.15642942 C126.897201,3.14664811 126.922632,3.1368668 126.952628,3.13034592 C126.971213,3.12708549 126.988493,3.12382505 127.009686,3.12708549 C127.024684,3.13034592 127.04229,3.13556262 127.058592,3.14012724 C127.096087,3.15642942 127.132278,3.17925249 127.166187,3.20370577 C127.228135,3.25130815 127.283563,3.30477932 127.33573,3.3634672 C127.417241,3.45671571 127.48571,3.555833 127.550918,3.65918887 C127.63569,3.7980835 127.71231,3.94415109 127.779149,4.09413121 C127.953256,4.49353479 128.076501,4.91576143 128.168445,5.34450895 C128.284191,5.89030616 128.35103,6.44653678 128.383634,7.00309344 C128.442322,7.93068787 128.409718,8.86154274 128.320056,9.78424652 C128.256151,10.4549185 128.158664,11.1200477 128.035419,11.7796342 C127.953256,12.2263141 127.860986,12.6697336 127.753392,13.1098926 C127.62493,13.634171 127.481145,14.1548628 127.317145,14.6683817 C127.219332,14.9800795 127.114998,15.2904732 127.004143,15.5976064 C126.700922,16.3132724 126.358577,17.0119841 125.968302,17.6842863 C125.591396,18.3331133 125.172755,18.9591173 124.716294,19.5525169 C124.422203,19.9339881 124.112135,20.3024175 123.783809,20.6571531 L123.783809,16.5695427 L123.793264,16.5701948 L123.793264,16.5701948 Z M111.820286,38.8109423 C112.488676,40.269662 113.007085,41.790004 113.430942,43.3364294 C113.913487,45.1026083 114.268875,46.8991093 114.549272,48.7070219 C114.865535,50.7633797 115.080724,52.8321272 115.233964,54.9064175 C115.406767,57.2369781 115.504581,59.5721034 115.556748,61.9082068 C115.615435,64.5025368 115.615435,67.0994751 115.582831,69.6941312 C115.579571,70.3396978 115.560008,70.9859165 115.449153,71.6220278 C115.400247,71.9193797 115.331777,72.2141233 115.233964,72.5013678 C115.149193,72.7573121 115.044859,73.0090179 114.911181,73.2447475 C114.797066,73.449503 114.660127,73.6425209 114.500366,73.8163022 C114.369948,73.9653042 114.213447,74.09833 114.043905,74.2065765 C113.897185,74.3011292 113.740684,74.3777495 113.574402,74.4289384 C113.421161,74.4713241 113.2614,74.4941471 113.101638,74.4941471 C112.943507,74.4941471 112.784398,74.4680636 112.632135,74.4224175 C112.468461,74.3702505 112.309352,74.292 112.165893,74.1974473 C112.001567,74.0865924 111.852891,73.9529145 111.719213,73.8029344 C111.565972,73.6268708 111.432294,73.4318966 111.321439,73.2290974 C111.19363,72.9910855 111.093209,72.7400318 111.011698,72.4857177 C110.919753,72.1955388 110.855197,71.8994911 110.809551,71.6021392 C110.760644,71.2865288 110.734561,70.9663539 110.719563,70.6452008 C110.704891,70.3191571 110.702282,69.9940915 110.702282,69.6670696 L110.702282,36.6570974 C111.119618,37.3522227 111.491308,38.0753877 111.827133,38.8109423 L111.820286,38.8109423 L111.820286,38.8109423 Z M134.427833,22.4448509 C135.274243,22.4448509 135.963499,21.7568986 135.963499,20.9082068 C135.963499,20.0585368 135.274243,19.3699324 134.427833,19.3699324 C133.576859,19.3699324 132.889559,20.0578847 132.889559,20.9055984 C132.889559,21.7533121 133.577511,22.4412644 134.427833,22.4412644 L134.427833,22.4448509 L134.427833,22.4448509 Z" id="flic-logo-flic"></path>
                        </g>
                    </g>
                </g>
            </g>
        </g>
    </g>
</svg>