<?xml version="1.0" encoding="UTF-8" standalone="no"?>
<svg width="273px" height="80px" viewBox="0 0 273 80" version="1.1" xmlns="http://www.w3.org/2000/svg" xmlns:xlink="http://www.w3.org/1999/xlink" xmlns:sketch="http://www.bohemiancoding.com/sketch/ns">
    <!-- Generator: Sketch 3.4 (15575) - http://www.bohemiancoding.com/sketch -->
    <title>johan</title>
    <desc>Created with Sketch.</desc>
    <defs>
        <path id="path-1" d="M0.06,0.319 L272.844,0.319 L272.844,80 L0.06,80"></path>
    </defs>
    <g id="Page-1" stroke="none" stroke-width="1" fill="none" fill-rule="evenodd" sketch:type="MSPage">
        <g id="johan" sketch:type="MSLayerGroup">
            <path d="M175.312,57.545 L178.908,57.545 L178.908,31.738 C178.908,30.461 179.72,28.839 181.4,28.839 C183.027,28.839 183.664,30.056 183.664,31.738 L183.664,57.545 L187.257,57.545 L187.257,30.347 C187.257,27.794 185.925,25.591 182.968,25.591 C181.111,25.591 179.605,26.751 178.792,28.084 L178.675,28.084 L178.675,25.938 L175.312,25.938 L175.312,57.545" id="Fill-1" fill="#3A210A" sketch:type="MSShapeGroup"></path>
            <path d="M202.007,25.938 L198.414,25.938 L195.339,47.223 L195.224,47.223 L192.671,25.938 L189.076,25.938 L193.658,57.545 L192.066,67.842 L195.177,67.842 L202.007,25.938" id="Fill-2" fill="#3A210A" sketch:type="MSShapeGroup"></path>
            <path d="M211.187,35.334 L214.552,35.334 L214.552,30.114 C214.552,28.201 213.332,25.591 209.505,25.591 C206.257,25.591 203.88,27.562 203.88,31.042 L203.88,35.101 C203.88,36.842 204.519,37.943 205.562,39.335 L209.679,44.961 C210.548,46.121 211.013,47.281 211.013,48.44 L211.013,52.268 C211.013,53.718 210.722,54.994 209.273,54.994 C207.707,54.994 207.476,53.775 207.476,52.326 L207.476,47.455 L203.88,47.455 L203.88,52.964 C203.88,56.501 206.257,57.893 209.214,57.893 C212.695,57.893 214.609,55.98 214.609,52.559 L214.609,47.223 C214.609,45.772 214.203,44.961 213.332,43.743 L208.808,37.421 C207.88,36.087 207.476,35.218 207.476,34.29 L207.476,30.752 C207.476,29.534 207.88,28.49 209.332,28.49 C210.492,28.49 211.187,29.186 211.187,30.636 L211.187,35.334" id="Fill-3" fill="#3A210A" sketch:type="MSShapeGroup"></path>
            <path d="M218.587,25.938 L216.789,25.938 L216.789,28.839 L218.587,28.839 L218.587,53.66 C218.587,56.096 219.978,57.545 222.994,57.545 L224.736,57.545 L224.736,54.645 L223.98,54.645 C222.937,54.645 222.183,54.297 222.183,52.848 L222.183,28.839 L224.736,28.839 L224.736,25.938 L222.183,25.938 L222.183,20.313 L218.587,21.705 L218.587,25.938" id="Fill-4" fill="#3A210A" sketch:type="MSShapeGroup"></path>
            <path d="M228.32,57.545 L231.916,57.545 L231.916,33.826 C231.916,30.52 233.132,29.186 236.613,29.186 L236.613,25.591 C234.351,25.591 232.9,26.46 231.8,28.143 L231.683,28.143 L231.683,25.938 L228.32,25.938 L228.32,57.545" id="Fill-5" fill="#3A210A" sketch:type="MSShapeGroup"></path>
            <path d="M238.345,51.805 C238.345,56.617 241.244,57.893 244.318,57.893 C247.394,57.893 250.291,56.617 250.291,51.805 L250.291,31.68 C250.291,26.867 247.394,25.591 244.318,25.591 C241.244,25.591 238.345,26.867 238.345,31.68 L238.345,51.805 L238.345,51.805 Z M246.697,51.805 C246.697,54.124 245.767,54.994 244.318,54.994 C242.869,54.994 241.941,54.124 241.941,51.805 L241.941,31.68 C241.941,29.36 242.869,28.49 244.318,28.49 C245.767,28.49 246.697,29.36 246.697,31.68 L246.697,51.805 L246.697,51.805 Z M245.421,21.125 L249.017,21.125 L249.017,16.717 L245.421,16.717 L245.421,21.125 Z M239.621,21.125 L243.216,21.125 L243.216,16.717 L239.621,16.717 L239.621,21.125 Z" id="Fill-6" fill="#3A210A" sketch:type="MSShapeGroup"></path>
            <path d="M253.326,57.545 L256.923,57.545 L256.923,31.738 C256.923,30.172 257.792,28.839 259.242,28.839 C260.576,28.839 261.039,29.824 261.039,31.564 L261.039,57.545 L264.634,57.545 L264.634,31.738 C264.634,30.172 265.505,28.839 266.955,28.839 C268.289,28.839 268.751,29.824 268.751,31.564 L268.751,57.545 L272.347,57.545 L272.347,30.347 C272.347,27.794 271.015,25.591 268.056,25.591 C266.492,25.591 265.332,26.345 264.345,27.562 C263.591,26.286 262.316,25.591 260.982,25.591 C259.068,25.591 257.908,26.46 256.806,28.084 L256.691,28.084 L256.691,25.938 L253.326,25.938 L253.326,57.545" id="Fill-7" fill="#3A210A" sketch:type="MSShapeGroup"></path>
            <path d="M77.923,20.15 L81.75,20.15 L81.75,15.742 L77.923,15.742 L77.923,20.15 Z M78.039,58.717 C78.039,60.225 77.518,60.979 76.589,60.979 C76.3,60.979 76.009,60.92 75.719,60.862 L75.719,63.589 C76.124,63.762 76.705,63.879 77.518,63.879 C79.198,63.879 81.635,62.95 81.635,59.877 L81.635,26.008 L78.039,26.008 L78.039,58.717 L78.039,58.717 Z" id="Fill-8" fill="#3A210A" sketch:type="MSShapeGroup"></path>
            <path d="M85.021,51.873 C85.021,56.687 87.922,57.963 90.996,57.963 C94.069,57.963 96.97,56.687 96.97,51.873 L96.97,31.75 C96.97,26.936 94.069,25.66 90.996,25.66 C87.922,25.66 85.021,26.936 85.021,31.75 L85.021,51.873 L85.021,51.873 Z M93.372,51.873 C93.372,54.193 92.445,55.063 90.996,55.063 C89.546,55.063 88.619,54.193 88.619,51.873 L88.619,31.75 C88.619,29.43 89.546,28.56 90.996,28.56 C92.445,28.56 93.372,29.43 93.372,31.75 L93.372,51.873 L93.372,51.873 Z" id="Fill-9" fill="#3A210A" sketch:type="MSShapeGroup"></path>
            <path d="M99.829,57.615 L103.425,57.615 L103.425,31.808 C103.425,30.531 104.237,28.907 105.918,28.907 C107.542,28.907 108.181,30.125 108.181,31.808 L108.181,57.615 L111.775,57.615 L111.775,30.415 C111.775,27.864 110.441,25.66 107.601,25.66 C105.745,25.66 104.237,26.819 103.541,28.154 L103.425,28.154 L103.425,15.743 L99.829,15.743 L99.829,57.615" id="Fill-10" fill="#3A210A" sketch:type="MSShapeGroup"></path>
            <path d="M122.987,38.07 C117.303,38.07 114.636,40.217 114.636,44.16 L114.636,52.743 C114.636,55.934 116.144,57.963 118.928,57.963 C121.074,57.963 122.118,57.15 123.104,55.934 L123.22,55.934 L123.22,57.615 L126.582,57.615 L126.582,31.169 C126.582,27.11 124.495,25.66 121.016,25.66 C117.71,25.66 114.984,27.631 114.984,30.879 L114.984,34.591 L118.58,34.591 L118.58,31.633 C118.58,29.777 118.869,28.56 120.899,28.56 C122.35,28.56 122.987,29.313 122.987,31.228 L122.987,38.07 L122.987,38.07 Z M122.987,51.815 C122.987,53.903 122.059,55.063 120.493,55.063 C118.58,55.063 118.231,53.845 118.231,51.583 L118.231,44.392 C118.231,41.725 121.132,40.971 122.987,40.971 L122.987,51.815 L122.987,51.815 Z" id="Fill-11" fill="#3A210A" sketch:type="MSShapeGroup"></path>
            <path d="M129.443,57.615 L133.039,57.615 L133.039,31.808 C133.039,30.531 133.851,28.907 135.533,28.907 C137.156,28.907 137.794,30.125 137.794,31.808 L137.794,57.615 L141.39,57.615 L141.39,30.415 C141.39,27.864 140.056,25.66 137.097,25.66 C135.242,25.66 133.734,26.819 132.921,28.154 L132.806,28.154 L132.806,26.008 L129.443,26.008 L129.443,57.615" id="Fill-12" fill="#3A210A" sketch:type="MSShapeGroup"></path>
            <path d="M160.353,26.703 C160.353,28.85 159.078,30.821 156.466,32.967 C155.132,30.009 154.843,29.255 154.843,25.892 L154.843,21.833 C154.843,19.802 155.539,18.295 157.568,18.295 C159.888,18.295 160.353,19.977 160.353,21.833 L160.353,26.703 L160.353,26.703 Z M162.208,53.266 C160.642,54.773 159.599,55.063 158.498,55.063 C155.83,55.063 154.089,53.498 154.089,50.075 L154.089,43.813 C154.089,41.435 154.437,39.463 155.423,38.129 L162.208,53.266 L162.208,53.266 Z M164.529,57.615 L168.357,57.615 L165.919,52.105 C166.791,49.959 167.08,47.697 167.08,44.392 L167.08,36.853 L163.947,36.853 L163.947,45.842 C163.947,46.77 163.832,47.697 163.716,48.336 L163.601,48.336 L158.15,35.577 L160.701,33.199 C162.845,31.228 163.716,29.545 163.716,26.124 L163.716,21.484 C163.716,16.902 161.746,15.395 157.511,15.395 C153.335,15.395 151.248,17.657 151.248,22.064 L151.248,26.124 C151.248,28.617 151.769,31.228 152.697,32.851 L153.974,35.229 C152.175,36.273 150.494,39.404 150.494,42.537 L150.494,51.061 C150.494,55.063 152.871,57.963 157.859,57.963 C160.41,57.963 161.976,57.383 163.716,55.527 L164.529,57.615 L164.529,57.615 Z" id="Fill-13" fill="#3A210A" sketch:type="MSShapeGroup"></path>
            <path d="M7.354,31.723 C9.511,22.706 20.604,15.839 33.967,15.839 C48.358,15.839 60.113,23.808 60.904,33.848 L7.354,31.723 L7.354,31.723 Z M60.914,35.866 C60.223,45.972 48.424,54.014 33.967,54.014 C19.401,54.014 7.529,45.855 6.994,35.646 L60.914,35.866 L60.914,35.866 Z" id="Fill-14" fill="#3A210A" sketch:type="MSShapeGroup"></path>
            <g id="Group-18">
                <mask id="mask-2" sketch:name="Clip 16" fill="white">
                    <use xlink:href="#path-1"></use>
                </mask>
                <g id="Clip-16"></g>
                <path d="M34.642,11.718 L37.372,0.319 C37.372,0.319 52.554,3.966 61.573,15.745 C72.553,30.084 71.158,48.797 53.868,60.006 C39.933,69.039 26.657,68.154 26.657,68.154 L29.845,58.047 C29.845,58.047 40.756,59.828 53.142,53.04 C67.246,45.312 66.721,30.236 60.648,22.855 C51.615,11.877 34.642,11.718 34.642,11.718" id="Fill-15" fill="#769B31" sketch:type="MSShapeGroup" mask="url(#mask-2)"></path>
                <path d="M0,79.823 C0,79.823 7.604,68.463 31.066,70.011 C43.288,70.817 64.757,80 64.757,80 C64.757,80 45.349,78.391 26.228,78.341 C12.756,78.307 0,79.823 0,79.823" id="Fill-17" fill="#769B31" sketch:type="MSShapeGroup" mask="url(#mask-2)"></path>
            </g>
            <path d="M96.18,62.873 L97.406,62.873 L97.406,65.038 L99.822,62.873 L101.412,62.873 L99.002,64.96 L101.748,67.818 L100.095,67.818 L98.155,65.689 L97.406,66.333 L97.406,67.818 L96.18,67.818 L96.18,62.873" id="Fill-19" fill="#3A210A" sketch:type="MSShapeGroup"></path>
            <path d="M105.807,64.393 C105.771,64.33 105.744,64.26 105.723,64.197 C105.702,64.134 105.688,64.071 105.681,64.001 C105.66,64.064 105.646,64.12 105.631,64.176 C105.604,64.239 105.583,64.302 105.555,64.365 L104.805,66.011 L106.542,66.011 L105.807,64.393 L105.807,64.393 Z M105.022,62.873 L106.36,62.873 L108.748,67.818 L107.361,67.818 L106.941,66.886 L104.406,66.886 L103.986,67.818 L102.634,67.818 L105.022,62.873 L105.022,62.873 Z" id="Fill-20" fill="#3A210A" sketch:type="MSShapeGroup"></path>
            <path d="M110.306,62.873 L111.545,62.873 L111.545,64.778 L114.536,64.778 L114.536,62.873 L115.776,62.873 L115.776,67.818 L114.536,67.818 L114.536,65.696 L111.545,65.696 L111.545,67.818 L110.306,67.818 L110.306,62.873" id="Fill-21" fill="#3A210A" sketch:type="MSShapeGroup"></path>
            <path d="M117.348,62.873 L118.713,62.873 L120.037,66.116 C120.114,66.319 120.135,66.382 120.184,66.585 C120.247,66.361 120.261,66.305 120.345,66.116 L121.676,62.873 L123.007,62.873 L120.787,67.818 L119.582,67.818 L117.348,62.873" id="Fill-22" fill="#3A210A" sketch:type="MSShapeGroup"></path>
            <path d="M125.006,62.873 L126.246,62.873 L126.246,67.818 L125.006,67.818 L125.006,62.873 Z" id="Fill-23" fill="#3A210A" sketch:type="MSShapeGroup"></path>
            <path d="M128.639,62.873 L129.872,62.873 L132.294,65.626 C132.589,65.969 132.645,66.039 132.954,66.424 C132.912,65.955 132.912,65.829 132.904,65.401 L132.904,62.873 L134.087,62.873 L134.087,67.818 L132.862,67.818 L130.411,65.03 C130.152,64.729 130.046,64.603 129.773,64.253 C129.809,64.631 129.809,64.715 129.815,65.093 L129.815,67.818 L128.639,67.818 L128.639,62.873" id="Fill-24" fill="#3A210A" sketch:type="MSShapeGroup"></path>
            <path d="M137.726,65.086 L139.252,65.086 C139.652,65.086 140.199,65.08 140.199,64.421 C140.199,64.155 140.107,63.987 139.988,63.875 C139.82,63.727 139.638,63.727 139.12,63.727 L137.726,63.727 L137.726,65.086 L137.726,65.086 Z M136.507,62.866 L139.561,62.866 C140.086,62.866 140.766,62.887 141.158,63.448 C141.333,63.7 141.431,64.043 141.431,64.421 C141.431,64.897 141.277,65.219 141.095,65.437 C140.689,65.927 140.093,65.955 139.456,65.955 L137.726,65.955 L137.726,67.818 L136.507,67.818 L136.507,62.866 L136.507,62.866 Z" id="Fill-25" fill="#3A210A" sketch:type="MSShapeGroup"></path>
            <path d="M145.141,64.393 C145.106,64.33 145.078,64.26 145.057,64.197 C145.036,64.134 145.022,64.071 145.015,64.001 C144.994,64.064 144.98,64.12 144.966,64.176 C144.938,64.239 144.917,64.302 144.889,64.365 L144.139,66.011 L145.876,66.011 L145.141,64.393 L145.141,64.393 Z M144.357,62.873 L145.695,62.873 L148.083,67.818 L146.696,67.818 L146.276,66.886 L143.741,66.886 L143.32,67.818 L141.968,67.818 L144.357,62.873 L144.357,62.873 Z" id="Fill-26" fill="#3A210A" sketch:type="MSShapeGroup"></path>
            <path d="M152.366,64.393 C152.331,64.33 152.302,64.26 152.282,64.197 C152.26,64.134 152.247,64.071 152.24,64.001 C152.218,64.064 152.205,64.12 152.191,64.176 C152.163,64.239 152.142,64.302 152.114,64.365 L151.364,66.011 L153.101,66.011 L152.366,64.393 L152.366,64.393 Z M151.582,62.873 L152.919,62.873 L155.307,67.818 L153.92,67.818 L153.5,66.886 L150.965,66.886 L150.544,67.818 L149.193,67.818 L151.582,62.873 L151.582,62.873 Z" id="Fill-27" fill="#3A210A" sketch:type="MSShapeGroup"></path>
            <path d="M156.473,62.873 L157.713,62.873 L157.713,64.778 L160.704,64.778 L160.704,62.873 L161.943,62.873 L161.943,67.818 L160.704,67.818 L160.704,65.696 L157.713,65.696 L157.713,67.818 L156.473,67.818 L156.473,62.873" id="Fill-28" fill="#3A210A" sketch:type="MSShapeGroup"></path>
            <path d="M163.597,62.873 L168.507,62.873 L168.507,63.777 L166.672,63.777 L166.672,67.818 L165.432,67.818 L165.432,63.777 L163.597,63.777 L163.597,62.873" id="Fill-29" fill="#3A210A" sketch:type="MSShapeGroup"></path>
            <path d="M171.945,64.393 C171.91,64.33 171.881,64.26 171.861,64.197 C171.839,64.134 171.826,64.071 171.819,64.001 C171.797,64.064 171.784,64.12 171.77,64.176 C171.742,64.239 171.721,64.302 171.693,64.365 L170.943,66.011 L172.68,66.011 L171.945,64.393 L171.945,64.393 Z M171.161,62.873 L172.499,62.873 L174.886,67.818 L173.5,67.818 L173.08,66.886 L170.544,66.886 L170.124,67.818 L168.772,67.818 L171.161,62.873 L171.161,62.873 Z" id="Fill-30" fill="#3A210A" sketch:type="MSShapeGroup"></path>
            <path d="M178.714,62.873 L178.714,66.256 C178.708,66.648 178.693,67.188 178.252,67.559 C177.958,67.811 177.524,67.93 177.041,67.93 C176.705,67.93 176.452,67.874 176.137,67.804 L176.137,66.781 C176.354,66.816 176.634,66.865 176.844,66.865 C177.467,66.865 177.489,66.403 177.489,66.207 L177.489,62.873 L178.714,62.873" id="Fill-31" fill="#3A210A" sketch:type="MSShapeGroup"></path>
            <path d="M183.313,64.393 C183.278,64.33 183.25,64.26 183.229,64.197 C183.208,64.134 183.194,64.071 183.187,64.001 C183.166,64.064 183.152,64.12 183.138,64.176 C183.11,64.239 183.089,64.302 183.061,64.365 L182.311,66.011 L184.048,66.011 L183.313,64.393 L183.313,64.393 Z M182.529,62.873 L183.867,62.873 L186.254,67.818 L184.868,67.818 L184.448,66.886 L181.913,66.886 L181.492,67.818 L180.14,67.818 L182.529,62.873 L182.529,62.873 Z" id="Fill-32" fill="#3A210A" sketch:type="MSShapeGroup"></path>
            <path d="M201.917,62.873 L206.828,62.873 L206.828,63.777 L204.993,63.777 L204.993,67.818 L203.752,67.818 L203.752,63.777 L201.917,63.777 L201.917,62.873" id="Fill-33" fill="#3A210A" sketch:type="MSShapeGroup"></path>
            <path d="M208.491,62.873 L213.099,62.873 L213.099,63.763 L209.731,63.763 L209.731,64.876 L212.988,64.876 L212.988,65.752 L209.731,65.752 L209.731,66.936 L213.24,66.936 L213.24,67.818 L208.491,67.818 L208.491,62.873" id="Fill-34" fill="#3A210A" sketch:type="MSShapeGroup"></path>
            <path d="M215.343,62.873 L219.952,62.873 L219.952,63.763 L216.583,63.763 L216.583,64.876 L219.84,64.876 L219.84,65.752 L216.583,65.752 L216.583,66.936 L220.092,66.936 L220.092,67.818 L215.343,67.818 L215.343,62.873" id="Fill-35" fill="#3A210A" sketch:type="MSShapeGroup"></path>
            <path d="M222.204,62.873 L223.429,62.873 L223.429,65.038 L225.846,62.873 L227.436,62.873 L225.027,64.96 L227.772,67.818 L226.119,67.818 L224.179,65.689 L223.429,66.333 L223.429,67.818 L222.204,67.818 L222.204,62.873" id="Fill-36" fill="#3A210A" sketch:type="MSShapeGroup"></path>
            <path d="M231.83,64.393 C231.794,64.33 231.766,64.26 231.746,64.197 C231.724,64.134 231.71,64.071 231.704,64.001 C231.682,64.064 231.668,64.12 231.655,64.176 C231.626,64.239 231.606,64.302 231.578,64.365 L230.828,66.011 L232.565,66.011 L231.83,64.393 L231.83,64.393 Z M231.045,62.873 L232.383,62.873 L234.771,67.818 L233.384,67.818 L232.964,66.886 L230.429,66.886 L230.008,67.818 L228.657,67.818 L231.045,62.873 L231.045,62.873 Z" id="Fill-37" fill="#3A210A" sketch:type="MSShapeGroup"></path>
            <path d="M236.316,62.873 L237.548,62.873 L237.548,65.78 C237.548,66.221 237.639,66.592 238.109,66.816 C238.508,67.005 238.865,66.991 239.229,66.978 C239.699,66.936 240,66.809 240.196,66.585 C240.315,66.445 240.42,66.284 240.406,65.787 L240.406,62.873 L241.639,62.873 L241.639,65.745 C241.631,66.27 241.631,66.767 241.211,67.23 C240.7,67.797 239.748,67.986 238.999,67.986 C238.648,67.986 238.298,67.951 237.955,67.867 C237.716,67.811 237.409,67.713 237.1,67.51 C236.323,66.984 236.316,66.333 236.316,65.745 L236.316,62.873" id="Fill-38" fill="#3A210A" sketch:type="MSShapeGroup"></path>
            <path d="M245.269,65.086 L246.795,65.086 C247.195,65.086 247.742,65.08 247.742,64.421 C247.742,64.155 247.65,63.987 247.531,63.875 C247.363,63.727 247.181,63.727 246.663,63.727 L245.269,63.727 L245.269,65.086 L245.269,65.086 Z M244.05,62.866 L247.104,62.866 C247.629,62.866 248.309,62.887 248.701,63.448 C248.875,63.7 248.974,64.043 248.974,64.421 C248.974,64.897 248.82,65.219 248.638,65.437 C248.232,65.927 247.636,65.955 246.999,65.955 L245.269,65.955 L245.269,67.818 L244.05,67.818 L244.05,62.866 L244.05,62.866 Z" id="Fill-39" fill="#3A210A" sketch:type="MSShapeGroup"></path>
            <path d="M251.975,65.086 L253.501,65.086 C253.901,65.086 254.448,65.08 254.448,64.421 C254.448,64.155 254.356,63.987 254.237,63.875 C254.069,63.727 253.887,63.727 253.369,63.727 L251.975,63.727 L251.975,65.086 L251.975,65.086 Z M250.756,62.866 L253.81,62.866 C254.335,62.866 255.015,62.887 255.407,63.448 C255.582,63.7 255.68,64.043 255.68,64.421 C255.68,64.897 255.526,65.219 255.344,65.437 C254.938,65.927 254.342,65.955 253.705,65.955 L251.975,65.955 L251.975,67.818 L250.756,67.818 L250.756,62.866 L250.756,62.866 Z" id="Fill-40" fill="#3A210A" sketch:type="MSShapeGroup"></path>
            <path d="M257.477,62.873 L258.717,62.873 L258.717,67.818 L257.477,67.818 L257.477,62.873 Z" id="Fill-41" fill="#3A210A" sketch:type="MSShapeGroup"></path>
            <path d="M263.456,64.393 C263.42,64.33 263.392,64.26 263.372,64.197 C263.35,64.134 263.336,64.071 263.33,64.001 C263.308,64.064 263.294,64.12 263.281,64.176 C263.252,64.239 263.232,64.302 263.204,64.365 L262.454,66.011 L264.191,66.011 L263.456,64.393 L263.456,64.393 Z M262.671,62.873 L264.009,62.873 L266.397,67.818 L265.01,67.818 L264.59,66.886 L262.055,66.886 L261.634,67.818 L260.283,67.818 L262.671,62.873 L262.671,62.873 Z" id="Fill-42" fill="#3A210A" sketch:type="MSShapeGroup"></path>
            <path d="M268.691,66.284 C268.971,66.879 269.679,67.062 270.351,67.062 C270.652,67.062 271.598,67.012 271.598,66.41 C271.598,66.053 271.254,65.969 270.989,65.92 C270.786,65.878 269.77,65.724 269.539,65.682 C269.083,65.598 267.935,65.38 267.935,64.26 C267.935,64.015 268.004,63.763 268.131,63.56 C268.544,62.894 269.455,62.719 270.239,62.719 C270.96,62.719 271.514,62.824 272.025,63.104 C272.529,63.377 272.747,63.742 272.844,63.903 L271.667,64.197 C271.625,64.12 271.528,63.938 271.234,63.79 C270.905,63.629 270.477,63.601 270.239,63.601 C269.693,63.601 269.132,63.706 269.132,64.176 C269.132,64.498 269.419,64.582 269.791,64.666 C269.994,64.708 271.002,64.876 271.234,64.925 C271.808,65.03 272.782,65.241 272.782,66.326 C272.782,67.916 270.89,67.972 270.267,67.972 C269.455,67.972 268.201,67.832 267.564,66.578 L268.691,66.284" id="Fill-43" fill="#3A210A" sketch:type="MSShapeGroup"></path>
        </g>
    </g>
</svg>