<?xml version="1.0" encoding="UTF-8" standalone="no"?>
<!-- Created with Inkscape (http://www.inkscape.org/) -->

<svg
   xmlns:dc="http://purl.org/dc/elements/1.1/"
   xmlns:cc="http://creativecommons.org/ns#"
   xmlns:rdf="http://www.w3.org/1999/02/22-rdf-syntax-ns#"
   xmlns:svg="http://www.w3.org/2000/svg"
   xmlns="http://www.w3.org/2000/svg"
   xmlns:sodipodi="http://sodipodi.sourceforge.net/DTD/sodipodi-0.dtd"
   xmlns:inkscape="http://www.inkscape.org/namespaces/inkscape"
   id="svg2"
   version="1.1"
   inkscape:version="0.48.2 r9819"
   width="174"
   height="65.318764"
   xml:space="preserve"
   sodipodi:docname="Klarna_Tagline_Vertical.pdf"><metadata
     id="metadata8"><rdf:RDF><cc:Work
         rdf:about=""><dc:format>image/svg+xml</dc:format><dc:type
           rdf:resource="http://purl.org/dc/dcmitype/StillImage" /><dc:title></dc:title></cc:Work></rdf:RDF></metadata><defs
     id="defs6"><clipPath
       clipPathUnits="userSpaceOnUse"
       id="clipPath18"><path
         d="m 12,314 571,0 0,214 -571,0 0,-214 z"
         id="path20"
         inkscape:connector-curvature="0" /></clipPath><clipPath
       clipPathUnits="userSpaceOnUse"
       id="clipPath36"><path
         d="m 12.07197,529.8776 569.87483,0 0,-215.8056 -569.87483,0 0,215.8056 z"
         id="path38"
         inkscape:connector-curvature="0" /></clipPath><clipPath
       clipPathUnits="userSpaceOnUse"
       id="clipPath42"><path
         d="m 12,314 571,0 0,214 -571,0 0,-214 z"
         id="path44"
         inkscape:connector-curvature="0" /></clipPath></defs><sodipodi:namedview
     pagecolor="#ffffff"
     bordercolor="#666666"
     borderopacity="1"
     objecttolerance="10"
     gridtolerance="10"
     guidetolerance="10"
     inkscape:pageopacity="0"
     inkscape:pageshadow="2"
     inkscape:window-width="908"
     inkscape:window-height="611"
     id="namedview4"
     showgrid="false"
     fit-margin-top="0"
     fit-margin-left="0"
     fit-margin-right="0"
     fit-margin-bottom="0"
     inkscape:zoom="0.22422803"
     inkscape:cx="356.78504"
     inkscape:cy="133.65999"
     inkscape:window-x="176"
     inkscape:window-y="200"
     inkscape:window-maximized="0"
     inkscape:current-layer="g10" /><g
     id="g10"
     inkscape:groupmode="layer"
     inkscape:label="Klarna_Tagline_Vertical"
     transform="matrix(1.25,0,0,-1.25,-15.089962,457.90876)"><g
       id="g12" /><g
       id="g14"
       transform="matrix(0.24426447,0,0,0.24426447,9.1232166,237.35537)"><g
         id="g16"
         clip-path="url(#clipPath18)"><path
           d="m 262.3655,449.9016 -0.3083,-0.1559 c -3.8302,-1.9194 -7.333,-2.8502 -10.6583,-2.8502 -5.4317,0 -8.5626,1.1204 -8.5626,6.9059 l 0,1.1504 c 0,7.1615 3.1789,9.8342 11.7247,9.8342 l 7.8045,0 0,-14.8844 z m 11.2737,50.5107 c -4.8176,3.8854 -12.0078,5.8588 -21.3574,5.8588 -8.0623,0 -16.7893,-1.4179 -21.8131,-2.6427 -1.2692,-0.3107 -1.9805,-1.1144 -1.9805,-2.242 l 0,-10.2732 c 0,-1.1576 0.5614,-1.7106 1.7238,-1.7106 l 0.6285,0 c 3.7631,0.3634 12.8427,0.8841 21.0635,0.8841 6.0471,0 10.0968,-1.5799 10.0968,-9.3184 l 0,-5.1354 -7.4398,0 c -10.8046,0 -18.4723,-1.6674 -23.423,-5.0646 -4.8355,-3.3504 -7.2154,-8.5278 -7.2154,-15.8165 l 0,-1.1504 c 0,-18.4963 13.2313,-21.2589 21.1306,-21.2589 6.7488,0 11.7738,1.6314 17.3075,5.602 l 0.9081,0.6574 0,-3.1369 c 0,-1.088 0.8697,-1.9781 1.9613,-1.9781 l 14.2198,0 c 1.076,0 1.9649,0.8901 1.9649,1.9781 l 0,45.3033 c 0,8.7258 -2.6306,15.2731 -7.7756,19.444 z m 55.8992,5.8588 c -6.1131,0 -12.2465,-2.1569 -16.7534,-5.9572 l -0.926,-0.7665 0,3.7511 c 0,1.0904 -0.9021,1.9733 -1.9721,1.9733 l -15.1159,0 c -1.0713,0 -1.9626,-0.8829 -1.9626,-1.9733 l 0,-67.5112 c 0,-1.0724 1.0185,-2.1004 2.0897,-2.1004 l 15.3606,0 c 1.0533,0 1.9853,0.986 1.9853,2.1004 l 0,49.9601 0.2855,0.1476 c 5.6201,3.0433 11.065,4.5116 16.6322,4.5116 l 1.0281,0 c 0.7737,0 1.3387,0.9813 1.3387,1.857 l 0,12.0581 c 0,1.0713 -0.8937,1.9494 -1.9901,1.9494 z m 117.8575,-56.3695 -0.3371,-0.1559 c -3.817,-1.9194 -7.3078,-2.8502 -10.6571,-2.8502 -5.4053,0 -8.5458,1.1204 -8.5458,6.9059 l 0,1.1504 c 0,7.1615 3.1669,9.8342 11.7247,9.8342 l 7.8153,0 0,-14.8844 z m 11.2533,50.5107 c -4.8236,3.8854 -11.9994,5.8588 -21.3514,5.8588 -8.0503,0 -16.7953,-1.4179 -21.8203,-2.6427 -1.2656,-0.3107 -1.9673,-1.1144 -1.9673,-2.242 l 0,-10.2732 c 0,-1.1576 0.5554,-1.7106 1.7118,-1.7106 l 0.6333,0 c 3.7631,0.3634 12.8379,0.8841 21.0647,0.8841 6.0542,0 10.0788,-1.5799 10.0788,-9.3184 l 0,-5.1354 -7.4182,0 c -10.8262,0 -18.4759,-1.6674 -23.411,-5.0646 -4.8631,-3.3504 -7.2382,-8.5278 -7.2382,-15.8165 l 0,-1.1504 c 0,-18.4963 13.2337,-21.2589 21.1378,-21.2589 6.7524,0 11.7522,1.6314 17.3015,5.602 l 0.9057,0.6574 0,-3.1369 c 0,-1.088 0.8829,-1.9781 1.9553,-1.9781 l 14.2198,0 c 1.0964,0 1.9685,0.8901 1.9685,1.9781 l 0,45.3033 c 0,8.7258 -2.6198,15.2731 -7.7708,19.444 z m -80.3371,5.8588 c -8.1667,0 -13.6788,-1.7358 -20.3665,-6.4922 l -0.8949,-0.6214 0,4.141 c 0,1.0904 -0.8757,1.9733 -1.9529,1.9733 l -14.209,0 c -1.1012,0 -1.9901,-0.8829 -1.9901,-1.9733 l 0,-67.5112 c 0,-1.0724 1.0304,-2.1004 2.1065,-2.1004 l 15.339,0 c 1.0736,0 1.9925,0.986 1.9925,2.1004 l 0,50.3332 0.2987,0.15 c 4.6759,2.4795 8.5434,4.1361 12.1973,4.1361 8.5062,0 9.9445,-3.8063 9.9445,-12.3677 l 0,-42.2516 c 0,-1.1144 0.9285,-2.1004 1.9733,-2.1004 l 15.3403,0 c 1.0976,0 2.1196,1.028 2.1196,2.1004 l 0,42.2516 c 0,19.7847 -6.5605,28.2322 -21.8983,28.2322 z m -165.2949,23.6065 -15.5022,0 c -1.1012,0 -2.0813,-0.9165 -2.0813,-1.9553 l 0,-92.135 c 0,-1.0724 1.0101,-2.1004 2.0813,-2.1004 l 15.5022,0 c 1.1192,0 1.8365,1.0892 1.8365,2.1004 l 0,92.135 c 0,1.118 -0.7977,1.9553 -1.8365,1.9553"
           style="fill:#ffffff;fill-opacity:1;fill-rule:nonzero;stroke:none"
           id="path22"
           inkscape:connector-curvature="0" /><path
           d="m 472.8918,505.0283 -1.4479,0 0,-4.9999 c 0,-0.0851 -0.0684,-0.1655 -0.1536,-0.1655 l -0.8205,0 c -0.0984,0 -0.1655,0.0804 -0.1655,0.1655 l 0,4.9999 -1.4407,0 c -0.0888,0 -0.174,0.0552 -0.174,0.1463 l 0,0.6574 c 0,0.0924 0.0852,0.1524 0.174,0.1524 l 4.0282,0 c 0.0875,0 0.1643,-0.06 0.1643,-0.1524 l 0,-0.6574 c 0,-0.0911 -0.0768,-0.1463 -0.1643,-0.1463"
           style="fill:#ffffff;fill-opacity:1;fill-rule:nonzero;stroke:none"
           id="path24"
           inkscape:connector-curvature="0" /><path
           d="m 479.024,499.8629 -0.8217,0 c -0.072,0 -0.1259,0.0804 -0.1259,0.1655 l 0,3.8291 c 0,0.0624 -0.0204,0.0996 -0.0204,0.0996 l -0.0552,-0.0624 -0.7905,-1.5823 c -0.0492,-0.0911 -0.1644,-0.1523 -0.2664,-0.1523 l -0.8361,0 c -0.1055,0 -0.2015,0.0612 -0.2615,0.1523 l -0.7989,1.5823 c 0,0 -0.03,0.0624 -0.048,0.0624 0,0 -0.0168,-0.0372 -0.0168,-0.0996 l 0,-3.8291 c 0,-0.0851 -0.0635,-0.1655 -0.1283,-0.1655 l -0.8289,0 c -0.0804,0 -0.1452,0.0456 -0.1452,0.1236 l 0,5.68 c 0,0.1727 0.1512,0.3179 0.3347,0.3179 l 0.6634,0 c 0.1391,0 0.2495,-0.0804 0.3155,-0.1872 l 1.2439,-2.5359 c 0.036,-0.072 0.0528,-0.108 0.078,-0.108 0.042,0 0.0624,0.036 0.0972,0.108 l 1.2427,2.5359 c 0.066,0.1068 0.1704,0.1872 0.3059,0.1872 l 0.6874,0 c 0.1751,0 0.3167,-0.1452 0.3167,-0.3179 l 0,-5.68 c 0,-0.078 -0.0612,-0.1236 -0.1416,-0.1236"
           style="fill:#ffffff;fill-opacity:1;fill-rule:nonzero;stroke:none"
           id="path26"
           inkscape:connector-curvature="0" /><path
           d="m 140.9956,484.6198 c 16.0792,0.2016 31.0331,8.9477 39.1219,22.93 3.9226,6.7596 6.0279,14.4717 6.1215,22.3278 -7.8561,-0.0948 -15.561,-2.2168 -22.3326,-6.1311 -13.9691,-8.0791 -22.7212,-23.0295 -22.9108,-39.1267"
           style="fill:#ffffff;fill-opacity:1;fill-rule:nonzero;stroke:none"
           id="path28"
           inkscape:connector-curvature="0" /><path
           d="m 133.2319,529.8776 -12.7815,0 c -3.1189,0 -5.6692,-2.5467 -5.6692,-5.6668 l 0,-88.2099 c 0,-0.9933 0.8757,-2.0897 2.2768,-2.0897 l 12.7875,0 c 3.1249,0 5.6752,2.5275 5.6752,5.6824 l 0,88.3287 c 0,1.118 -0.986,1.9553 -2.2888,1.9553"
           style="fill:#ffffff;fill-opacity:1;fill-rule:nonzero;stroke:none"
           id="path30"
           inkscape:connector-curvature="0" /></g></g><g
       id="g32"
       transform="matrix(0.24426447,0,0,0.24426447,9.1232166,237.35537)"><g
         id="g34"
         clip-path="url(#clipPath36)"><g
           id="g40"
           clip-path="url(#clipPath42)"><path
             d="m 140.9956,478.9458 c 0.1896,-16.0899 8.9417,-31.0523 22.9108,-39.1327 6.7716,-3.9178 14.4765,-6.0243 22.3326,-6.1262 -0.0936,7.868 -2.1989,15.5825 -6.1215,22.347 -8.0888,13.9703 -23.0427,22.7164 -39.1219,22.9119"
             style="fill:#ffffff;fill-opacity:1;fill-rule:nonzero;stroke:none"
             id="path46"
             inkscape:connector-curvature="0" /><path
             d="m 316.7784,384.7404 c -0.1187,1.6914 -1.1947,2.8586 -2.6738,2.9114 -0.9981,0.0144 -2.2024,-0.451 -3.612,-1.4707 -6.029,-4.5668 -11.4104,-9.557 -16.2938,-15.2874 1.6878,5.1354 3.246,9.9601 3.9634,12.5416 0.008,0.0276 0.0228,0.054 0.03,0.0839 0.004,0.0144 0.002,0.0288 0.006,0.0396 0.008,0.0408 0.0215,0.0804 0.0323,0.1152 l -0.0167,0.005 c 0.2075,1.232 -0.5627,2.4243 -1.7922,2.7206 -1.2884,0.3059 -2.5779,-0.4786 -2.8874,-1.7621 -10e-4,-0.002 0,-0.007 -10e-4,-0.012 -0.5098,-2.8167 -2.771,-9.7094 -6.5893,-20.8523 -1.8126,-5.2014 -3.3348,-10.0645 -5.3549,-16.7282 -0.004,-0.007 -0.01,-0.0168 -0.0108,-0.0264 -0.002,-0.004 -0.002,-0.008 -0.004,-0.0156 -0.004,-0.0144 -0.01,-0.0287 -0.0132,-0.0419 l 0.005,0 c -0.3011,-1.2512 0.4498,-2.5288 1.713,-2.8682 1.2655,-0.3443 2.5707,0.391 2.927,1.6374 l 0.005,-0.002 c 2.0057,8.1631 5.4988,14.8868 9.8461,20.496 4.6196,6.0291 9.3747,10.1245 14.4465,14.0111 -2.2216,-6.1718 -4.1301,-12.3221 -6.293,-19.4164 -2.0968,-6.8568 -3.5627,-12.7503 -3.8374,-14.3122 l 0.008,0 c -0.2543,-1.2511 0.5326,-2.4951 1.8018,-2.7998 1.2799,-0.3071 2.5623,0.463 2.8849,1.719 l 0.002,0 c 0.002,0.007 0.004,0.0168 0.007,0.0264 10e-4,0.005 10e-4,0.007 0.002,0.01 0.001,0.006 0,0.0108 0.001,0.0156 1.1205,5.2109 1.8654,7.976 3.7115,13.9451 1.4563,4.8055 4.8907,15.8452 6.8089,20.8427 0.6573,1.7394 1.2631,3.0901 1.1767,4.4756 z m 248.8121,-6.5065 c -5.1474,-7.519 -9.6806,-11.45 -12.676,-11.6491 -1.0748,-0.0708 -1.0868,1.2391 -1.1935,2.8562 -0.3215,4.9998 1.7909,10.314 5.8035,15.1375 4.0738,4.9063 10.5323,10.0441 18.4412,14.2702 -3.4452,-8.5746 -7.489,-16.3299 -10.3752,-20.6148 z m 15.0631,24.8913 c -0.2003,0.0912 -0.4054,0.1427 -0.613,0.1727 -0.0348,0.1152 -0.0707,0.2303 -0.1235,0.3455 -0.5098,1.0796 -1.755,1.5643 -2.7818,1.0796 -10e-4,0 -0.004,-0.005 -0.005,-0.005 -10.1209,-4.7611 -17.833,-10.6714 -23.1975,-17.136 -4.8751,-5.8035 -7.4086,-11.9958 -6.9792,-18.4579 0.4007,-6.0747 2.8202,-7.5346 6.2834,-7.3078 4.1518,0.2723 9.5139,5.5672 14.2114,11.5975 -1.5738,-5.4425 -2.8717,-8.9729 -4.6867,-14.5233 -4.0378,-12.3521 -9.6002,-13.4929 -13.9367,-12.7899 -1.5295,0.2507 -1.358,0.3023 -2.4508,0.7869 l -10e-4,-0.005 c -1.184,0.5578 -2.5983,0.078 -3.1861,-1.1036 -0.5901,-1.1828 -0.1115,-2.6259 1.0701,-3.2233 10e-4,0 0.004,-0.002 0.006,-0.002 0,-0.002 0.004,-0.002 0.007,-0.007 0.0252,-0.012 0.0479,-0.0144 0.0731,-0.0264 1.4191,-0.6034 2.5192,-0.9393 3.7103,-1.1384 6.924,-1.1216 15.1879,1.226 19.3001,15.958 1.0964,3.9286 1.8785,5.5289 4.1757,13.9523 1.3735,4.9531 2.7207,9.2104 3.6132,11.8975 2.789,8.1367 3.8566,10.6762 6.6072,17.1216 l -0.008,0 c 0.008,0.0192 0.0192,0.0312 0.0264,0.0492 0.4715,1.0292 -0.0264,2.2684 -1.1144,2.765 z M 268.1523,378.7773 c 0.7041,1.0796 0.4582,2.5143 -0.5878,3.2521 -1.0496,0.7401 -2.5119,0.4798 -3.2869,-0.5758 l -0.004,0.004 c -6.2918,-8.8397 -16.7953,-24.132 -22.3457,-32.5266 0.1859,5.4221 0.0695,9.5786 0.1859,13.6032 0.1463,7.0223 0.1451,8.006 0.3875,14.6973 0,0.002 0,0.005 0,0.005 0,0.0191 0,0.0299 0.002,0.0491 l -0.005,0 c 0.0228,1.3052 -0.9885,2.3992 -2.2996,2.4508 -1.3172,0.0516 -2.4352,-0.9837 -2.4868,-2.3128 -0.002,-0.0168 10e-4,-0.03 10e-4,-0.0468 l -10e-4,0 c -0.1487,-3.6383 -0.3658,-6.966 -0.3838,-14.852 -0.01,-5.6764 -0.0252,-9.8162 -0.2459,-16.6202 -0.0168,-0.0983 -0.0372,-0.1943 -0.042,-0.2975 -0.036,-0.8901 0.4258,-1.683 1.1288,-2.1232 -5.067,-7.3259 -7.6521,-11.0422 -10.3188,-14.7669 l 0.006,-0.005 c -0.3107,-0.3874 -0.5134,-0.8672 -0.535,-1.4035 -0.0516,-1.3147 0.9728,-2.4279 2.2816,-2.4795 0.8013,-0.0276 1.521,0.3407 1.9757,0.9285 l 0.002,-0.005 c 0.01,0.0144 0.0168,0.0228 0.024,0.0348 0.0108,0.0144 0.0192,0.0264 0.0288,0.0372 3.0913,4.37 12.0929,17.3147 17.1372,24.7113 10.0896,14.6481 13.9571,20.3905 19.3888,28.2369 l -0.008,0.005 z m 11.9598,4.6316 c -1.2116,0.5086 -2.6067,-0.0552 -3.1213,-1.2764 -0.012,-0.03 -0.0168,-0.0611 -0.0276,-0.0887 -4.3161,-10.7939 -9.779,-27.6072 -11.5124,-35.2125 l 0.01,-0.002 c -0.2927,-1.244 0.4571,-2.5119 1.7154,-2.8514 1.28,-0.3443 2.5995,0.4079 2.9438,1.6758 0.01,0.0348 0.01,0.0696 0.0156,0.1032 l 0.0144,-0.002 c 2.7638,10.6618 8.3407,27.7331 11.2244,34.5227 0.001,0.005 0.004,0.007 0.006,0.01 0,0 0,0.005 10e-4,0.007 0.005,0.0108 0.0108,0.0228 0.0144,0.0348 l -0.004,0 c 0.4811,1.2115 -0.0851,2.5767 -1.2799,3.0805 z m 126.5173,-22.852 c -6.6361,-3.5244 -16.4631,-5.638 -25.3004,-6.2978 l 9.4527,26.0453 c 0.3851,-0.1968 0.8085,-0.2615 1.2284,-0.1656 0.0144,0.007 0.0276,0.012 0.0432,0.0156 l 0.002,-0.006 c 3.4152,0.8481 6.0183,1.2488 8.8661,1.4335 11.6887,0.7726 16.7473,-3.3012 17.0412,-7.6821 0.3035,-4.6208 -4.1673,-9.545 -11.3336,-13.3429 z m -8.2987,40.4786 c 1.2224,0.2315 2.2888,0.3023 3.2976,0.3671 8.3791,0.553 11.5388,-1.7094 11.6755,-3.7835 0.1392,-2.0825 -1.9277,-4.6903 -6.6156,-7.3918 -5.7352,-3.3132 -10.6103,-4.3317 -14.1143,-5.0214 l 5.7568,15.8296 z m 9.1108,-15.3162 c 6.0891,2.5635 10.9354,7.7505 10.6415,12.2117 -0.3827,5.7676 -6.3938,8.9261 -16.7786,8.2423 -4.5248,-0.2975 -9.0316,-0.9788 -16.6465,-3.5567 0,-0.002 -10e-4,-0.002 -10e-4,-0.002 -0.002,0 -0.002,0 -0.002,0 -0.0108,-0.005 -0.018,-0.005 -0.03,-0.01 l 0.002,-0.002 c -1.0532,-0.3791 -1.5655,-1.6746 -1.1444,-2.9138 0.4198,-1.244 1.6134,-1.9541 2.681,-1.617 l 0,-0.005 c 2.4964,0.7809 4.7672,1.4742 6.8221,1.9961 l -16.8637,-46.3482 c -10e-4,-0.004 -0.005,-0.006 -0.006,-0.0108 -0.4391,-1.1132 0.1091,-2.3716 1.2295,-2.8118 0.4547,-0.1776 0.9321,-0.1872 1.3712,-0.0708 0.355,-0.8613 1.1372,-1.4383 2.0045,-1.3843 l 0.001,-0.007 c 10.0608,0.7353 19.907,2.6223 28.1985,6.9564 8.1343,4.2405 14.2882,10.5203 13.8107,17.8269 -0.3922,5.9235 -5.8227,10.9726 -15.2898,11.5064 z m -71.9304,-23.026 c -5.1498,-7.5189 -9.6806,-11.4475 -12.6772,-11.6443 -1.076,-0.0756 -1.0868,1.2392 -1.1936,2.8514 -0.3226,5.0023 1.791,10.3128 5.8048,15.1399 4.0714,4.9039 10.5311,10.0417 18.4388,14.2726 -3.4452,-8.577 -7.489,-16.3323 -10.3728,-20.6196 z m 15.0643,24.8913 c -0.2003,0.0936 -0.409,0.1428 -0.6154,0.1728 -0.0312,0.1175 -0.0684,0.2327 -0.1223,0.3442 -0.5111,1.0809 -1.755,1.5631 -2.7843,1.0809 -0.001,0 -0.002,0 -0.005,-0.002 l 0,0.002 c -10.1196,-4.766 -17.8317,-10.6775 -23.1974,-17.1408 -4.8727,-5.8012 -7.4074,-11.9934 -6.9768,-18.4532 0.4007,-6.077 2.8178,-7.5393 6.2834,-7.3126 4.1494,0.2747 9.5127,5.5696 14.2114,11.5999 -1.575,-5.4425 -2.8742,-8.9728 -4.6867,-14.5257 -4.0402,-12.3521 -9.5991,-13.4929 -13.9403,-12.7899 -1.5259,0.2531 -1.3556,0.3047 -2.4484,0.7893 l -0.001,-0.007 c -1.184,0.5578 -2.5983,0.0792 -3.1861,-1.1036 -0.589,-1.1828 -0.1115,-2.6211 1.0701,-3.2209 l 0,-0.002 c 0.002,0 0.004,0 0.008,-0.005 0.001,0 0.004,0 0.005,-0.002 0.0191,-0.01 0.0395,-0.012 0.0587,-0.0239 1.4263,-0.607 2.5299,-0.9417 3.7259,-1.1408 6.9228,-1.1217 15.1855,1.2259 19.2989,15.9556 1.0952,3.9286 1.8773,5.5288 4.1769,13.9523 1.3723,4.953 2.7207,9.2092 3.6107,11.8998 2.7903,8.1344 3.8591,10.6787 6.6085,17.1192 l -0.01,0.005 c 0.01,0.0168 0.0204,0.0276 0.0264,0.0444 0.4715,1.0316 -0.0264,2.2708 -1.1108,2.765 z m 147.0097,6.5173 c 0.703,1.0809 0.4571,2.5144 -0.5878,3.2521 -1.0508,0.7413 -2.5143,0.4834 -3.2868,-0.5758 l -0.004,0.005 c -6.2942,-8.8397 -16.7965,-24.1295 -22.3458,-32.5266 0.1847,5.4209 0.0684,9.5798 0.1847,13.5984 0.1452,7.0044 0.0936,10.9174 0.3323,17.5859 0.002,0.007 0.002,0.0132 0.004,0.0204 0,0.005 -0.001,0.0144 -0.001,0.0216 0,0.0252 0.001,0.0491 0.005,0.0743 l -0.008,0 c -10e-4,1.2872 -0.9992,2.3524 -2.2972,2.404 -1.3183,0.054 -2.4363,-0.9813 -2.4879,-2.3104 -0.1464,-3.6383 -0.3107,-9.9121 -0.3311,-17.7982 -0.0108,-5.7591 -0.0228,-9.9325 -0.2555,-16.914 l 0,-0.005 c 0,-0.002 0,-0.002 0,-0.002 0,-0.0324 -10e-4,-0.0636 -10e-4,-0.0936 l 0.006,0 c 0,-0.8433 0.4354,-1.5858 1.1,-2.0177 -5.0706,-7.333 -7.6593,-11.0517 -10.326,-14.7788 l 0.006,-0.005 c -0.3131,-0.3863 -0.5158,-0.8673 -0.5374,-1.4035 -0.0516,-1.3148 0.9741,-2.4268 2.284,-2.476 0.8025,-0.0336 1.5211,0.3371 1.9745,0.9273 l 0.004,-0.005 c 0.01,0.012 0.0192,0.0264 0.0276,0.0396 0.007,0.007 0.012,0.0168 0.0204,0.0288 3.0841,4.3605 12.0942,17.3147 17.1396,24.7125 10.0909,14.6481 13.9595,20.3917 19.3888,28.2381 l -0.006,0.004 z m 11.9922,4.6604 c -1.214,0.5086 -2.6091,-0.0588 -3.1225,-1.2739 -0.0132,-0.0336 -0.0156,-0.0636 -0.0276,-0.0936 l -0.002,0 c -4.3161,-10.7926 -9.7778,-27.6023 -11.5099,-35.2125 l 0.01,0 c -0.2938,-1.2439 0.4583,-2.5119 1.713,-2.8514 1.2836,-0.3419 2.6007,0.4079 2.945,1.6734 0.0108,0.0348 0.0108,0.072 0.018,0.1068 l 0.0132,-0.001 c 2.765,10.6571 8.3395,27.7259 11.2233,34.5203 0,0.002 0.004,0.005 0.006,0.01 0.001,0.005 0.001,0.01 0.004,0.0108 0.002,0.012 0.01,0.0216 0.0132,0.0336 l -0.002,0 c 0.481,1.2092 -0.0852,2.5767 -1.28,3.0781 z M 230.9689,372.2144 c 0.0396,0.005 0.0804,0.005 0.12,0.012 1.2931,0.2855 2.098,1.5703 1.8125,2.8658 -0.2867,1.2979 -1.5582,2.1221 -2.8526,1.8366 0,0 -0.002,-0.002 -0.006,-0.002 l 0,0.002 c -2.8274,-0.4967 -4.3449,-0.829 -7.7816,-1.4407 0.8133,1.7525 2.0776,5.0466 2.8214,6.642 3.7295,7.8909 7.0283,10.5755 8.7893,10.6955 1.6242,0.1056 2.8682,-2.4412 3.3576,-6.3446 l 0.004,0 c 0.008,-0.1032 0.0132,-0.2063 0.0384,-0.3119 0.2831,-1.2979 1.5606,-2.1172 2.8442,-1.8365 1.208,0.2675 1.9805,1.4083 1.8438,2.615 l 0.0263,0 c -0.5482,4.8332 -2.6534,11.023 -8.427,10.6463 -4.2285,-0.2795 -8.0648,-4.0845 -12.7827,-13.4353 -1.3016,-2.5551 -2.9678,-6.876 -4.1722,-9.6662 -3.7978,-0.7917 -6.9287,-1.3807 -10.5023,-2.308 l 0.004,-0.01 c -1.2272,-0.3227 -1.9997,-1.5462 -1.7262,-2.7878 0.2783,-1.2704 1.5535,-2.0717 2.8358,-1.7874 0.036,0.007 0.0708,0.0252 0.108,0.0348 l 0.002,-0.012 c 1.1468,0.3143 3.8854,0.8793 7.0859,1.4767 -3.7883,-10.4519 -8.7209,-23.5142 -14.8388,-46.7812 l 0.0108,-0.005 c -0.2831,-1.256 0.4558,-2.5191 1.689,-2.8442 1.2272,-0.3263 2.4735,0.3886 2.861,1.5978 l 0.012,-0.002 c 0.008,0.0348 0.0192,0.0696 0.0276,0.108 0.002,0.004 0.006,0.0108 0.006,0.0132 0.002,0.007 0.002,0.012 0.004,0.0144 5.8096,21.7148 11.1681,37.4053 15.7985,48.9596 5.9619,1.0928 7.4781,1.4203 10.9917,2.0417 l -0.004,0.0132 z m 315.4715,28.0666 c -0.1164,1.6914 -1.1936,2.8562 -2.6703,2.9102 -1.0004,0.0156 -2.2036,-0.4475 -3.6131,-1.4695 -6.0279,-4.5692 -11.4116,-9.5547 -16.2951,-15.2899 1.6878,5.1306 3.2449,9.9505 3.961,12.5344 0.01,0.0312 0.0252,0.0588 0.0348,0.0912 0.002,0.0168 0.002,0.0336 0.005,0.0468 0.01,0.036 0.0204,0.0756 0.03,0.1104 l -0.0144,0.002 c 0.2063,1.2319 -0.5614,2.4279 -1.7922,2.7206 -1.2883,0.3095 -2.5779,-0.4762 -2.8862,-1.7646 0,-0.002 0,-0.002 -0.004,-0.007 -0.5086,-2.8166 -2.771,-9.7094 -6.5892,-20.8523 -1.8138,-5.2062 -3.3361,-10.0764 -5.3634,-16.7497 l -10e-4,-0.004 c 0,-0.002 0,-0.002 0,-0.005 -0.007,-0.0168 -0.012,-0.036 -0.018,-0.054 l 0.006,0 c -0.3023,-1.2535 0.4487,-2.5311 1.7118,-2.8706 1.2656,-0.3443 2.5707,0.3935 2.9294,1.6374 l 0.002,0 c 2.0069,8.1608 5.5001,14.8832 9.8462,20.4961 4.6195,6.0291 9.3771,10.122 14.4489,14.0087 -2.2228,-6.1731 -4.1302,-12.3197 -6.2942,-19.4164 -2.0933,-6.8568 -3.5615,-12.7492 -3.8386,-14.3098 l 0.01,0 c -0.2543,-1.2536 0.5327,-2.4976 1.7994,-2.8022 1.28,-0.3047 2.5647,0.4666 2.8862,1.7213 l 0.004,0 c 0.005,0.01 0.006,0.024 0.01,0.036 1.1204,5.2194 1.8641,7.982 3.7103,13.9583 1.4599,4.8056 4.8931,15.8453 6.8112,20.8451 0.6574,1.7394 1.2644,3.089 1.1744,4.4757 z m -85.2493,-6.1695 c 0.3718,1.0641 -0.2004,2.2876 -1.3508,2.7903 -1.1995,0.5278 -2.5611,0.0683 -3.0433,-1.0281 -0.007,-0.0192 -0.01,-0.0372 -0.018,-0.0564 l -0.007,0.002 c -6.293,-15.862 -8.583,-19.8746 -10.0717,-21.8263 -1.7825,-2.2804 -5.8635,-5.9463 -10.4255,-9.4191 -2.7986,-2.1149 -5.0011,-3.9574 -5.4509,-4.063 -0.3815,-0.1044 -0.7929,0.3359 -0.3131,1.3711 0.3923,0.9465 1.5679,4.2717 1.9565,5.3046 2.9882,7.4554 6.1383,14.69 11.2689,26.0764 l -0.01,0.005 c 0.0108,0.0192 0.0252,0.0348 0.036,0.0564 0.5182,1.0772 -0.024,2.4112 -1.2104,2.9798 -1.1828,0.5722 -2.5635,0.1571 -3.0829,-0.9225 -0.0144,-0.0264 -0.0192,-0.0588 -0.0324,-0.0888 l -0.007,0.002 c -7.0475,-15.0655 -13.175,-31.0703 -13.9283,-33.5906 -0.571,-1.9685 -0.9513,-3.3108 -0.8829,-4.2321 0.1187,-1.8486 1.1552,-3.5592 3.8446,-3.3804 3.6923,0.2435 12.9819,9.3603 16.0636,11.7235 -0.9213,-2.7339 -2.1904,-5.7724 -2.5515,-7.1855 -0.001,-0.002 -0.001,-0.005 -0.001,-0.007 0,0 0,-0.005 -0.002,-0.005 -0.012,-0.054 -0.0264,-0.1092 -0.0372,-0.156 l 0.0168,-0.005 c -0.1715,-1.1036 0.6094,-2.2048 1.8318,-2.5023 1.2835,-0.3143 2.5551,0.3695 2.8358,1.5319 0.006,0.0168 0.004,0.03 0.008,0.0468 l 0.004,-0.002 c 2.819,12.2393 9.9457,24.8373 14.5749,36.5751 l -0.0144,0.005 z m -259.4044,-11.354 c 1.1948,-0.4606 2.5311,0.1152 3.0374,1.28 l 0.006,0 0.0216,0.0539 c 0.002,0.012 0.0119,0.0204 0.0155,0.0348 0.006,0.012 0.007,0.0264 0.0132,0.0396 l 1.5067,3.9155 c 0.004,0.0119 0.01,0.0191 0.0132,0.0251 0.004,0.012 0.004,0.0168 0.007,0.0288 l 0.007,0.018 0,0.005 c 0.4414,1.2212 -0.1655,2.5659 -1.3735,3.035 -1.214,0.4678 -2.5695,-0.1224 -3.0625,-1.3268 l -0.007,0.002 -1.5199,-3.9754 c -0.01,-0.0192 -0.0204,-0.0336 -0.0276,-0.0492 -0.007,-0.0216 -0.008,-0.0408 -0.0156,-0.0611 l -0.0132,-0.0324 0.004,0 c -0.409,-1.202 0.1907,-2.5287 1.3879,-2.993 z M 78.64866,374.4504 c 1.21517,-0.4714 2.58149,0.1308 3.06612,1.3352 l 0.0036,0 0.0084,0.0228 c 0.0012,0.002 0.0036,0.005 0.0036,0.007 l 0,0.002 1.57384,4.0882 -0.01199,0.005 c 0.39946,1.2044 -0.20153,2.5143 -1.38911,2.9738 -1.19119,0.4594 -2.51792,-0.1056 -3.03134,-1.268 l -0.012,0.005 -1.57265,-4.0858 c 0,0 -0.0012,0 -0.0012,-0.002 -0.0012,0 -0.0012,-0.002 -0.0024,-0.005 l -0.0096,-0.0251 0.0024,-0.002 c -0.44985,-1.2188 0.15714,-2.5803 1.37232,-3.0506 z m -25.78617,-7.1579 c 0.8601,-0.8829 2.24321,-0.9284 3.18608,-0.1595 l 0.0132,-0.0168 c 3.21967,2.6835 4.47443,5.9307 4.30649,8.4702 -0.33229,4.9975 -5.01065,6.93 -10.93297,6.5413 -7.92803,-0.5242 -15.22027,-3.5519 -20.45644,-7.375 -4.12055,-2.9737 -7.10631,-6.9587 -6.82081,-11.2652 0.22312,-3.4584 2.43635,-5.3981 4.98066,-6.4646 7.06792,-2.8586 18.36197,-4.2777 21.20137,-5.1726 2.68106,-0.8253 3.9934,-1.9829 4.13015,-4.1349 0.25432,-3.7583 -3.25925,-7.9316 -9.56305,-11.9802 -6.29299,-4.0414 -14.01589,-6.4082 -18.40155,-6.6937 -5.77478,-0.3838 -7.53576,1.743 -7.7121,4.4301 -0.22552,3.3888 2.0069,7.0103 5.57925,10.3404 l -0.0024,0 c 0.01079,0.0108 0.02399,0.018 0.03479,0.0299 0.94406,0.9249 0.95126,2.4388 0.02159,3.3877 -0.92368,0.944 -2.42435,0.9728 -3.37202,0.0635 -0.0048,-0.002 -0.0072,-0.007 -0.0096,-0.01 -0.0024,0 -0.0048,-0.002 -0.0072,-0.005 -0.0024,-0.005 -0.0036,-0.005 -0.0048,-0.007 -4.13975,-3.901 -7.35823,-8.8133 -7.00675,-14.1106 0.34308,-5.2278 4.71795,-9.4263 12.79232,-8.8913 5.30574,0.3467 13.47848,2.9678 20.67356,7.4686 7.34023,4.574 12.16494,9.9133 11.74389,16.2951 -0.3035,4.6927 -3.57235,7.3354 -7.65212,8.3742 -3.45599,0.8613 -14.53651,2.6031 -20.5752,5.0623 -1.27275,0.5326 -2.01769,1.3363 -2.08607,2.3344 -0.14635,2.2276 1.39991,4.568 4.94467,7.1243 4.34488,3.1393 11.18608,5.9883 17.88214,6.4309 4.07137,0.2675 5.77358,-0.8541 5.85275,-2.0873 0.07797,-1.1552 -0.51942,-2.7362 -2.5659,-4.4936 l 0.01199,-0.0144 c -0.04558,-0.0396 -0.09596,-0.0696 -0.14035,-0.1115 -0.93807,-0.9213 -0.96086,-2.428 -0.04558,-3.3601 z m 458.05711,36.2801 c 1.1972,-0.4618 2.5312,0.1152 3.0362,1.2764 l 0.006,-0.002 0.0192,0.048 c 0.004,0.0156 0.0144,0.0276 0.0204,0.0419 0.005,0.0156 0.007,0.03 0.0132,0.0444 l 1.5018,3.9083 c 0.006,0.008 0.012,0.018 0.018,0.03 0.002,0.0119 0.005,0.0251 0.01,0.0347 l 0.004,0.012 -10e-4,0.002 c 0.4415,1.2212 -0.1655,2.5707 -1.3723,3.0362 -1.2116,0.469 -2.5683,-0.1236 -3.0613,-1.328 l -0.01,0.005 -1.5223,-3.9814 c -0.006,-0.0156 -0.0168,-0.03 -0.024,-0.0468 -0.008,-0.0179 -0.008,-0.0347 -0.0144,-0.0539 l -0.0156,-0.0372 0.005,0 c -0.4066,-1.2044 0.192,-2.5275 1.3879,-2.9894 z m -229.464,-15.3558 c 1.1972,-0.4618 2.5311,0.1152 3.0374,1.2776 l 0.005,0 0.0203,0.0515 c 0.005,0.0108 0.0144,0.0228 0.018,0.0372 0.006,0.012 0.007,0.0252 0.0132,0.0396 l 1.5067,3.9202 c 0.004,0.007 0.01,0.0132 0.0132,0.0228 0.004,0.01 0.004,0.0192 0.007,0.0288 l 0.008,0.0204 -0.001,0 c 0.4414,1.2212 -0.1655,2.5707 -1.3723,3.0338 -1.2152,0.469 -2.5707,-0.1188 -3.0637,-1.3232 l -0.007,0 -1.5199,-3.9742 c -0.01,-0.018 -0.0204,-0.0324 -0.0276,-0.0504 -0.007,-0.0216 -0.008,-0.0408 -0.0156,-0.0588 l -0.0132,-0.0335 0.004,-0.002 c -0.4091,-1.202 0.1907,-2.5252 1.3879,-2.9894 z M 133.034,369.958 c -0.1259,0.8421 -0.7245,1.6542 -2.1424,2.0273 -2.2816,0.6142 -3.2221,-0.2927 -7.1172,-3.2569 -5.6668,-4.2309 -10.5503,-8.7977 -14.1718,-12.4384 1.5667,4.4252 3.504,8.962 4.1098,10.3092 0.5398,1.2715 0.6561,1.7478 0.6166,2.4411 -0.0576,0.9165 -0.6454,1.5739 -1.9853,2.0261 -1.821,0.5722 -2.7807,-0.1032 -4.7672,-1.551 -6.714,-4.8427 -11.98978,-10.29 -16.17031,-14.8916 1.36992,3.8782 3.52436,8.7365 5.50127,14.9647 l -0.01439,0.007 c 0.02039,0.0492 0.04798,0.0912 0.06477,0.1452 0.41866,1.2559 -0.23991,2.5959 -1.46588,3.0085 -1.23077,0.4091 -2.56351,-0.2675 -2.98336,-1.521 -0.0096,-0.0276 -0.0108,-0.0564 -0.01799,-0.0816 l -0.0072,0.005 c -2.09447,-5.7832 -3.02414,-8.156 -6.06867,-17.0101 -1.68302,-4.899 -2.79023,-8.0623 -4.0222,-11.5459 -2.12445,-4.1542 -2.68226,-6.197 -3.56395,-10.4256 l 0.0132,-0.005 c -0.18594,-1.1672 0.50862,-2.3247 1.68061,-2.669 1.23077,-0.3611 2.51552,0.3143 2.92817,1.509 l 0.0084,-0.002 c 1.49708,4.3509 2.53591,7.2743 3.44639,9.9578 1.57505,2.9653 3.62153,5.8827 5.97991,8.7437 3.29884,4.0018 8.59263,9.1396 14.40813,13.6116 -1.6554,-4.2753 -2.6235,-7.1243 -3.6623,-10.2024 -0.9681,-2.9222 -1.8198,-6.3758 -2.9558,-9.0796 -1.5846,-3.9646 -2.25997,-6.7141 -2.82857,-9.767 l 0.0168,-0.002 c -0.22553,-1.202 0.48463,-2.3992 1.67821,-2.7302 1.25836,-0.3515 2.56466,0.3982 2.91736,1.6614 0.005,0.024 0.005,0.0444 0.012,0.0708 l 0.006,-0.005 c 0.9189,3.5399 2.0069,7.0055 2.8466,9.4622 1.2152,2.7015 2.909,5.1342 4.8271,7.5778 4.1494,5.1402 7.9568,8.2423 15.7565,14.0902 -1.8378,-4.911 -4.1889,-11.4775 -4.8931,-13.6848 -2.6427,-7.9736 -4.5116,-14.6696 -5.1666,-17.5726 l 0.0108,0 c -0.2531,-1.2344 0.4919,-2.4663 1.7262,-2.7902 1.274,-0.3299 2.5779,0.433 2.909,1.7058 0.0132,0.054 0.0144,0.1103 0.024,0.1643 l 0.018,-0.002 c 0.5866,2.8178 2.6822,9.7574 4.9998,16.7845 2.6439,7.9772 5.5793,16.126 6.8928,18.3752 0.3515,0.565 0.7534,1.593 0.6058,2.5863 z m 20.2261,-19.907 c -5.4809,-5.9188 -9.4635,-8.6598 -14.2894,-10.4496 1.713,4.3605 3.4644,8.2651 5.1582,11.9299 3.4452,7.4877 6.3518,11.5411 13.2626,17.9493 1.527,1.4083 2.6606,1.8701 3.5819,1.9349 0.9981,0.0612 2.0465,-0.5638 2.1737,-2.4903 0.2339,-3.6108 -3.5448,-11.9766 -9.887,-18.8742 z m 7.4002,26.1304 c -4.8439,-0.3215 -10.687,-7.886 -13.6152,-11.48 0.6346,2.0501 2.17,5.7676 2.8646,8.0552 l 0,0.001 c 0.002,0.002 0.002,0.005 0.004,0.01 l -0.001,0 c 0.3275,1.2776 -0.4355,2.5731 -1.7094,2.903 -1.2116,0.3167 -2.4316,-0.3515 -2.8454,-1.5091 l -0.0156,0.005 c -1.5954,-5.1258 -3.3852,-10.7254 -8.1152,-24.553 -2.5875,-7.5753 -7.9412,-23.4302 -10.9689,-32.5158 0,-0.005 -0.002,-0.007 -0.004,-0.012 0,-0.002 0,-0.002 0,-0.005 -0.004,-0.006 -0.006,-0.0132 -0.007,-0.018 l 10e-4,-0.002 c -0.3635,-1.2511 0.3515,-2.5707 1.6122,-2.9545 1.2344,-0.3779 2.5263,0.2855 2.951,1.4778 l 0.007,-0.002 c 0.005,0.0216 0.0132,0.0432 0.018,0.0636 0.005,0.0144 0.012,0.0264 0.0156,0.0372 0.006,0.0144 0.006,0.0264 0.008,0.0408 2.2156,7.1219 4.1877,13.2302 6.0638,18.4951 7.8009,1.2836 13.9596,6.323 19.7919,12.6556 7.2131,7.8896 11.5388,17.1408 11.1969,22.3662 -0.3131,4.6951 -3.7967,7.171 -7.2527,6.9419 z m -82.05603,-9.5522 c 0.43665,1.1899 -0.12595,2.5191 -1.30034,3.0109 -1.21038,0.511 -2.60549,-0.0564 -3.12011,-1.2751 -0.0048,-0.008 -0.006,-0.018 -0.0096,-0.03 l -0.0024,0 C 69.86533,357.5435 64.41204,340.7326 62.67145,333.1249 l 0.0084,-0.002 c -0.2783,-1.2368 0.46903,-2.4927 1.7226,-2.8322 1.28355,-0.3443 2.60428,0.4055 2.94736,1.671 0.006,0.0276 0.006,0.0588 0.0132,0.084 l 0.006,0 c 2.77942,10.6882 8.36827,27.8218 11.24606,34.5791 l -0.0108,0.005 z M 201.71,374.8271 c 0,0.005 0.001,0.01 0.004,0.012 0.003,0.012 0.009,0.0228 0.0131,0.0324 l -0.004,0 c 0.4811,1.2092 -0.0851,2.5779 -1.2799,3.0817 -1.2116,0.5074 -2.6079,-0.0588 -3.1213,-1.28 -0.0144,-0.0275 -0.0168,-0.0611 -0.0276,-0.0887 l -0.002,0 c -4.3149,-10.7938 -9.7766,-27.6072 -11.51,-35.2125 l 0.007,-0.002 c -0.2903,-1.244 0.4595,-2.5083 1.7178,-2.8502 1.2812,-0.3455 2.5995,0.4067 2.9438,1.6722 0.01,0.0348 0.01,0.0732 0.0156,0.108 l 0.0144,-0.002 c 2.7614,10.6607 8.3395,27.7283 11.2221,34.5203 0.002,0.002 0.006,0.005 0.007,0.01 z m -9.9494,16.4594 c 10e-4,0 10e-4,0.005 0.002,0.005 0.004,0.0132 0.01,0.0252 0.0132,0.0348 l -0.004,0.002 c 0.4391,1.2272 -0.1739,2.5719 -1.3855,3.0338 -1.2044,0.457 -2.5431,-0.1308 -3.0385,-1.3184 l -0.007,0.002 c -3.504,-8.9596 -5.8804,-15.0655 -10.5395,-28.8115 -5.1114,-15.0931 -7.0871,-22.5629 -7.5574,-26.0633 l 0.0108,-0.002 c -0.0564,-1.04 0.6922,-2.0285 1.8222,-2.3092 1.2667,-0.3094 2.5275,0.3935 2.8154,1.5667 0.0108,0.0408 0.008,0.0804 0.0156,0.12 l 0.0144,0 c 0.4198,3.0433 1.5654,7.8344 7.4578,25.1347 4.1445,12.0714 5.9559,17.4527 10.3751,28.5956 0.002,0.002 0.005,0.007 0.005,0.01"
             style="fill:#ffffff;fill-opacity:1;fill-rule:nonzero;stroke:none"
             id="path48"
             inkscape:connector-curvature="0" /></g></g></g></g></svg>