<?xml version="1.0" encoding="UTF-8" standalone="no"?>
<svg width="115px" height="53px" viewBox="0 0 115 53" version="1.1" xmlns="http://www.w3.org/2000/svg" xmlns:xlink="http://www.w3.org/1999/xlink" xmlns:sketch="http://www.bohemiancoding.com/sketch/ns">
    <!-- Generator: Sketch 3.2.2 (9983) - http://www.bohemiancoding.com/sketch -->
    <title>WoltLogo</title>
    <desc>Created with Sketch.</desc>
    <defs></defs>
    <g id="Page-1" stroke="none" stroke-width="1" fill="none" fill-rule="evenodd" sketch:type="MSPage">
        <g id="Home" sketch:type="MSArtboardGroup" transform="translate(-35.000000, -35.000000)" fill="#FFFFFF">
            <path d="M149.056684,45.2337191 C144.051458,45.2776195 136.376037,45.7747002 129.188726,46.3042488 C129.659363,44.4892413 130.085523,42.9401514 130.391868,41.7710744 C130.661225,40.9564018 130.593829,40.4810427 129.515721,40.0738206 C128.437613,39.66637 126.550981,39.2589193 124.933705,39.3947362 C124.394765,39.4626447 123.990389,39.5984615 123.788201,40.2094089 C123.183226,42.1099307 122.592774,44.3957243 122.045892,46.8470591 C120.734054,46.9488074 119.485754,47.0459828 118.330265,47.1346982 C117.521741,47.2026067 117.117366,47.406332 116.780613,48.2889131 C116.376237,49.3752195 116.174049,51.0047935 116.308841,52.0911 C116.376237,52.8378642 116.645821,53.1774064 117.791325,53.0415895 C118.81656,52.8929684 119.855183,52.730171 120.900161,52.559371 C120.434062,55.1499523 120.034906,57.7437348 119.732418,60.1251032 C115.839112,66.6287657 111.006347,73.0027848 109.435818,73.0027848 C108.762085,73.0027848 108.35771,72.5953342 108.35771,69.9473622 C108.290314,64.1762877 109.23363,55.8932868 110.244342,49.7147618 C111.861617,45.4374444 112.602746,43.1290147 112.939725,39.1910109 C113.007121,38.3763382 112.804934,37.8330707 112.131201,37.4258487 C110.783509,36.611176 108.155522,36 106.471077,36 C105.93191,36 105.392969,36.2716338 105.258177,36.8825811 C104.284454,41.2273496 103.472299,46.1622584 102.881847,51.1522715 C100.653923,52.9306953 98.2828119,54.383753 96.1615419,55.0783855 C95.4878095,52.2948253 94.8812461,51.3443357 93.3313666,50.8010682 C91.5121303,50.1222124 87.3344901,49.7147618 85.4476309,49.9184871 C83.8305824,50.1222124 82.9546622,50.5973429 81.9439501,52.4306422 C78.911587,58.2693964 78.5074383,67.0958935 79.4507544,72.4595173 C79.7875072,74.4284048 80.3940706,75.6505282 81.4047826,76.3296126 C82.6176825,77.1442853 84.7738985,77.8231411 86.5257389,77.9589579 C88.1430144,78.0947748 89.2211224,77.9589579 90.703606,76.5333379 C94.4768705,72.8669679 96.5659175,64.4479215 96.4311257,57.9300829 C98.4421114,57.2546568 100.520493,56.2337437 102.498348,54.7264963 C101.929227,60.6274428 101.691412,66.4270982 101.889062,71.2373939 C101.956458,72.7990595 102.226041,73.8174575 103.236753,74.4963133 C104.853802,75.6505282 106.875226,76.2617042 108.694689,76.2617042 C111.113454,76.2617042 116.222611,72.3740029 119.156943,66.1863319 C119.150817,66.3091159 119.143782,66.4339577 119.139017,66.552626 C118.936829,71.9162497 123.855597,74.4284048 127.359505,74.0890913 C131.941521,73.6816406 138.275604,67.7068408 142.925016,61.5285444 C144.879044,58.9484809 145.687568,53.720674 145.350588,53.1774064 C145.215796,52.9736811 144.879044,53.109498 144.339876,53.7883538 C138.612357,61.6643613 130.324472,71.3732108 127.157317,71.3732108 C125.877248,71.3732108 125.742456,69.8115453 125.742456,68.3180168 C125.742456,62.5789531 126.812168,56.4308382 127.975372,51.2819149 C134.818442,49.9418092 141.827165,48.3056044 148.450347,46.7274762 C149.393664,46.5237509 150,45.8446664 150,45.5053529 C150,45.3016275 149.595851,45.2337191 149.056684,45.2337191 L149.056684,45.2337191 Z M87.8041141,73 C86.6860429,73 85.8310994,69.9632446 86.0284452,65.4417471 C86.225791,60.9202496 87.0149525,55.9262619 89.9086926,51 C89.6457864,54.104254 90.8952,56.8037437 93,57.0060123 C92.5395265,65.7792401 89.8429107,73 87.8041141,73 L87.8041141,73 Z M75.0772245,36.7697265 C73.5307607,35.6897851 70.7736664,34.8798859 68.8236591,35.0146797 C68.4201156,35.0146797 68.2183438,35.3522324 68.3528583,35.9598273 C69.4960051,41.2920237 70.1013203,45.6792997 70.1013203,54.1838097 C70.1013203,67.7509285 65.730505,78.752874 64.0493002,78.8878951 C62.9734107,78.9554057 62.6371245,77.7404432 62.3683219,75.5130499 C61.4939777,67.6159075 61.0234034,60.9337275 61.2251752,53.1713789 C61.2251752,52.2939691 60.9561462,51.8216226 60.0820284,51.8216226 C58.6698526,51.8216226 56.8543598,52.023927 55.3749268,52.3614797 C54.500809,52.5640113 54.0972655,53.0365851 53.8282365,53.8464843 C50.6270632,63.8798694 46.664094,74.995469 42.5561934,82.7382692 C42.410809,78.3580396 42.2042817,73.1331327 42.9348268,65.8608606 C43.6071728,58.9086385 44.4812906,53.1040957 46.7005533,45.2067259 C46.8348414,44.7343794 46.6332961,44.1267845 45.8262091,44.1267845 C42.8003123,44.1267845 39.9761872,44.80189 37.9586962,46.084363 C36.8828067,46.6917306 36.4794896,47.906693 36.2777179,49.1216555 C34.5292559,58.7063342 34.6637704,73.218146 36.1432034,84.4226231 C36.2104606,85.1650118 36.5465204,85.9074005 37.0845784,86.3799743 C38.0932107,87.257384 40.2449897,88 41.79168,88 C42.5985405,88 43.4726583,88 44.2797453,86.5825059 C47.1344419,81.4694346 50.7810529,73.8293778 53.9788294,64.9498093 C54.1806011,69.2382063 54.7229617,73.9991771 55.3076695,77.2003588 C55.9127583,80.5076935 58.1317946,83.2751712 62.6371245,82.8701079 C69.6977769,82.1952298 74.6066502,65.0509614 76.2876285,53.1040957 C77.0947155,47.366836 77.2290035,41.9669018 76.6239147,39.267162 C76.3548858,38.0521995 75.8170542,37.2423003 75.0772245,36.7697265 L75.0772245,36.7697265 Z" id="WoltLogo" sketch:type="MSShapeGroup"></path>
        </g>
    </g>
</svg>