<?xml version="1.0" encoding="utf-8"?>
<!-- Generator: Adobe Illustrator 19.1.0, SVG Export Plug-In . SVG Version: 6.00 Build 0)  -->
<svg version="1.1" id="Layer_1" xmlns="http://www.w3.org/2000/svg" xmlns:xlink="http://www.w3.org/1999/xlink" x="0px" y="0px"
	 viewBox="-298 386.6 14.1 21.4" style="enable-background:new -298 386.6 14.1 21.4;" xml:space="preserve">
<style type="text/css">
	.st0{fill:#C3BCB2;}
</style>
<g id="Pin">
	<g>
		<path class="st0" d="M-290.9,386.6c-3.9,0-7.1,3.2-7.1,7.1c0,1.6,1,4.1,3.1,7.8c1.5,2.6,2.9,4.8,3,4.9l1.1,1.6l1.1-1.6
			c0.1-0.1,1.5-2.3,3-4.9c2.1-3.7,3.1-6.3,3.1-7.8C-283.9,389.8-287,386.6-290.9,386.6L-290.9,386.6z M-290.9,397.3
			c-2,0-3.7-1.6-3.7-3.7c0-2,1.6-3.7,3.7-3.7c2,0,3.7,1.6,3.7,3.7C-287.3,395.7-288.9,397.3-290.9,397.3L-290.9,397.3z"/>
	</g>
</g>
</svg>
