<?xml version="1.0" encoding="utf-8"?>
<!-- Generator: Adobe Illustrator 19.1.0, SVG Export Plug-In . SVG Version: 6.00 Build 0)  -->
<svg version="1.1" id="Layer_1" xmlns="http://www.w3.org/2000/svg" xmlns:xlink="http://www.w3.org/1999/xlink" x="0px" y="0px"
	 viewBox="-259 351.2 91.8 91.8" style="enable-background:new -259 351.2 91.8 91.8;" xml:space="preserve">
<style type="text/css">
	.st0{fill:#F2F2F2;}
</style>
<g id="Logo">
	<g>
		<path class="st0" d="M-213.1,354.7c23.4,0,42.5,19,42.5,42.5s-19,42.5-42.5,42.5s-42.4-19.2-42.4-42.6S-236.5,354.7-213.1,354.7
			 M-213.1,351.2c-25.3,0-45.9,20.6-45.9,45.9c0,25.3,20.6,45.9,45.9,45.9c25.3,0,45.9-20.6,45.9-45.9
			C-167.2,371.8-187.7,351.2-213.1,351.2L-213.1,351.2z"/>
	</g>
	<g>
		<path class="st0" d="M-197.4,375.4l1.8,1.8l-13.2,13.1l0,0c-3.9,3.9-9.5,6.3-14.9,6.3l0,0c-3.2,0-5.9-0.9-7.5-2.5l-7.8-7.8
			l1.8-1.7l7.8,7.8c1.1,1.1,3.2,1.7,5.7,1.7l0,0c3.7,0,9.1-1.5,13.1-5.5l0,0L-197.4,375.4 M-197.4,370.9l-2.3,2.3l-13.2,13.1l0,0
			l0,0c-3.4,3.4-8,4.6-10.9,4.6c-2.2,0-3.3-0.6-3.5-0.8l-7.8-7.8l-2.3-2.3l-2.3,2.3l-1.8,1.7l-2.3,2.3l2.3,2.3l7.8,7.8
			c2.2,2.2,5.7,3.4,9.8,3.4c6.2,0,12.7-2.7,17.2-7.2l13.2-13.2l2.3-2.3l-2.3-2.3l-1.6-1.6L-197.4,370.9L-197.4,370.9z"/>
	</g>
	<g>
		<path class="st0" d="M-202.4,397.6c3.2,0,5.9,0.9,7.5,2.5l7.8,7.8l-1.8,1.7l-7.8-7.8c-1.1-1.1-3.2-1.7-5.7-1.7l0,0
			c-3.7,0-9.1,1.5-13.1,5.5l0,0l-13.2,13.2l-1.8-1.8l13.2-13.2l0,0C-213.4,399.9-207.8,397.6-202.4,397.6L-202.4,397.6
			 M-202.4,394.4L-202.4,394.4c-6.2,0-12.7,2.7-17.2,7.2l-13.2,13.2l-2.2,2.3l2.3,2.3l1.8,1.8l2.3,2.3l2.3-2.3l13.2-13.2
			c3.4-3.4,8-4.6,10.9-4.6c2.2,0,3.3,0.6,3.5,0.8l7.8,7.8l2.3,2.3l2.3-2.3l1.8-1.7l2.3-2.3l-2.3-2.3l-7.8-7.8
			C-194.8,395.6-198.3,394.4-202.4,394.4L-202.4,394.4z"/>
	</g>
	<g>
		<path class="st0" d="M-223.9,371.1l7.8,7.8c1.6,1.6,2.5,4.3,2.5,7.5c0,5.4-2.3,11-6.3,14.9l0,0l-13.1,13.2l-1.8-1.8l13.2-13.2l0,0
			c4.1-4.1,5.5-9.5,5.5-13.1c0-2.6-0.6-4.7-1.7-5.8l-7.8-7.8L-223.9,371.1 M-223.9,366.9l-2.1,2.1l-1.7,1.8l-2.1,2.1l2.1,2.1
			l7.8,7.8c0.3,0.3,0.9,1.5,0.9,3.7c0,3.1-1.2,7.6-4.7,11l-13.2,13.2l-2.1,2.1l2.1,2.1l1.8,1.8l2.1,2.1l2.1-2.1l13.2-13.2
			c4.5-4.5,7.2-10.8,7.2-17c0-4-1.2-7.5-3.3-9.6l-7.8-7.8L-223.9,366.9L-223.9,366.9z"/>
	</g>
	<g>
		<path class="st0" d="M-193.1,379.7l1.8,1.8l-13.3,13.1l0,0c-4.1,4.1-5.5,9.5-5.5,13.1c0,2.6,0.6,4.7,1.7,5.8l7.8,7.8l-1.7,1.8
			l-7.8-7.8c-1.6-1.6-2.5-4.3-2.5-7.5c0-5.4,2.3-11,6.3-14.9l0,0L-193.1,379.7 M-193.1,375.2l-2.3,2.3l-13.2,13.1l0,0l0,0
			c-4.5,4.5-7.2,10.9-7.2,17.1c0,4.1,1.2,7.6,3.4,9.8l7.8,7.8l2.3,2.3l2.3-2.3l1.7-1.8l2.3-2.3l-2.3-2.3l-7.8-7.8
			c-0.2-0.2-0.8-1.3-0.8-3.5c0-2.9,1.2-7.5,4.6-10.9l0,0l0,0l13.1-13.1l2.3-2.3l-2.2-2.1l-1.8-1.8L-193.1,375.2L-193.1,375.2z"/>
	</g>
</g>
</svg>
