<?xml version="1.0" encoding="utf-8"?>
<!-- Generator: Adobe Illustrator 19.1.0, SVG Export Plug-In . SVG Version: 6.00 Build 0)  -->
<svg version="1.1" id="Layer_1" xmlns="http://www.w3.org/2000/svg" xmlns:xlink="http://www.w3.org/1999/xlink" x="0px" y="0px"
	 viewBox="-292 384.7 25.3 25.3" style="enable-background:new -292 384.7 25.3 25.3;" xml:space="preserve">
<style type="text/css">
	.st0{fill:#005255;}
	.st1{fill:#9C9994;}
</style>
<g id="World">
	<circle class="st0" cx="-279.3" cy="397.4" r="12.7"/>
	<g>
		<path class="st1" d="M-291.2,397.1c0.1,0,0.3,0.9,0.4,1c0.2,0.3,0.7,0.5,1,0.3c0-0.3-0.3-0.4-0.5-0.6c-0.3-0.2-0.5-0.6-0.5-1
			c0.3,0.2,0.4,0.5,0.6,0.7c0.2,0.3,0.6,0.4,0.8,0.7c0.2,0.2,0.1,0.5,0.3,0.7c0.3,0.3,0.6,0.2,0.9,0.2c0.1,0,0.8-0.3,0.9-0.2
			c0.1,0.3,0.4,0.2,0.7,0.2c0.9,0,1.3,0.8,2.3,0.3c0.1,0.3,0.4,0.5,0.3,0.8c0,0.5-0.2,0.6-0.2,1c0,0.8,0.5,1,1.1,1.4
			c0.3,0.2,0.5,0.5,0.8,0.6c0.3,0.1,0.6,0.1,0.8,0.2c0.6,0.3,0.5,1.2,0.8,1.8c0.1,0.3,0.4,0.5,0.5,0.8c0.1,0.3,0,0.6,0.4,0.8
			c0.4,0.2,0.3,0.5,0.4,0.9c0.1,0.3,0.3,0.6,0.6,0.8c0.5,0.4,1.3,0.9,2,0.5c0.4-0.2-0.3-0.4-0.4-0.5c-0.3-0.2-0.1-0.7-0.3-0.8
			c-0.2,0-0.4,0.2-0.5-0.1c0.2-0.3,0.3-0.6-0.2-0.6c0.1-0.3,0.7-0.5,0.9-0.8c0.3-0.4,0.5-1.2,0.6-1.7c0.1-0.4-0.4-0.7-0.3-1.1
			c0.1-0.4,0.7-0.4,0.9-0.6c0.3-0.3,0.2-0.7,0.1-1c-0.1-0.5-0.2-1.1,0.1-1.6c0.3-0.5-0.2-0.5-0.6-0.6c-0.6-0.3-0.7-0.3-1.4-0.1
			c-0.3,0.1-0.8,0-1.2-0.2c-0.2-0.1-0.6-0.7-0.7-0.7c-0.8,0.2-1.2-0.4-1.4-0.4c-0.3-0.1-0.5,0.5-0.9,0.4s-0.7-0.4-1.1-0.1
			c-0.3,0.2-0.3,0.7-0.7,0.9c-1,0.5-0.8-0.5-1.4-0.9c-0.2,0-0.4,0.1-0.6,0c-0.1-0.3,0.2-0.6-0.2-0.8c-0.2,0.3-0.5,0.8-0.9,0.9
			c-0.7,0.1-0.9-0.4-0.9-0.9c0-1.2,1.1-1.4,2.1-1.8c0.2,0.5,0.2,0.5,0.7,0.4c0.1-0.2,0-0.3-0.1-0.5c-0.1-0.3,0.1-0.6,0.3-0.9
			c0.3-0.5,0.5-1,0.7-1.5c0.2-0.5,0.5-0.8,0.8-1.2c0,0,0.1-0.4,0.3-0.5c0.2-0.1,0.4,0.1,0.4-0.3c-0.2,0-0.3,0.1-0.4-0.1
			c-0.1-0.2,0.2-0.3,0.4-0.2c0.3,0.1,0.2,0.1,0.5,0.1c0.2,0,0.3-0.3,0.4-0.3c0.1,0.6,0.1,0.7,0.9,0.5c0.1-0.5-0.5-0.2-0.7-0.5
			c0.2-0.2,0.5-0.5,0.1-0.7c-0.2-0.1-0.4-0.1-0.5-0.3c0-0.2,0-0.5-0.2-0.6c-0.3,0.1-0.4,0.4-0.7,0.5c-0.1-0.2-0.1-0.4-0.2-0.5
			c-0.5,0-1.1-0.1-1.1,0.6c0,0.5,0.2,0.6-0.2,0.9c-0.2,0.2-0.2,0.8-0.5,0.8c-0.1-0.3-0.2-0.5-0.5-0.5c-0.4,0-0.8,0-0.9-0.5
			c0.4-0.4,0.7-0.9,1.2-1.2c0.1,0.1,0.2,0.4,0.4,0.2c0.2-0.2,0.4-0.3,0.1-0.6c0.6-0.1,0.9-1.4,1.7-0.7c-0.2,0.2-0.5,0.3-0.6,0.7
			c0.4,0,0.8,0,1.2-0.1c0.1-0.5,0.8-0.5,0.6-1c-0.4,0.1-0.3-0.3-0.5-0.4c-0.3-0.2-0.9-0.2-1.2-0.1c-0.7,0-1.3,0.5-1.1,1.2
			c-0.8,0.3-0.3-0.4-0.4-0.7c-0.3,0-0.7,0.1-0.9,0.3c-0.2,0.3,0.4,0.4,0.1,0.6c-0.2,0.2-1.1,1.1-1.1,0.3c0.4-0.1,0.7-0.4,0.7-0.8
			c-0.2-0.1-0.3,0.2-0.4,0.3c-0.2,0.2-0.5,0.2-0.8,0c-0.6-0.4-1.2,0.4-1.4,0.8c0.3,0,0.7-0.3,0.8,0.2c0.3,0,0.5-0.2,0.8,0
			c-0.5,0.2-0.7,0.2-1.1,0.1c-0.4-0.1-0.9,0-1.3,0.2c-1.4,1.9-2.3,4.2-2.4,6.7C-291.7,396.8-291.5,397.1-291.2,397.1
			C-291.1,397.1-291.5,397.1-291.2,397.1z"/>
		<path class="st1" d="M-270.5,390.4c-0.3-0.2-0.7,0.2-0.7,0.6c-0.3,0-0.5,0-0.8,0c-0.5,0.1-0.8,0-0.9-0.6c0,0,0,0-0.1-0.1
			c-0.4,0.2-0.9,0.3-1.2,0.5c-0.4,0.3-0.8,0.4-1.2,0.6c-0.4,0.2-0.6,0.6-0.4,1c0.1,0.2,0,0.3-0.1,0.4c-0.2,0.3-0.4,0.6-0.6,0.8
			c-0.3,0.5-0.3,0.6,0.3,0.8c0.1,0.2-0.1,0.3-0.1,0.5c0.1,0.3,0.1,0.7,0.4,0.9c0.5,0.4,1,0.7,1.6,0.9c0.1,0,0.2,0,0.2-0.1
			c0.4-0.3,1.1-0.2,1.4-0.8c0.1-0.1,0.3-0.2,0.4-0.1c0.4,0.2,0.8,0,1.2,0c-0.1,0.9,0.5,1.4,1.1,1.8c0.4,0.3,0.5,0.6,0.3,1
			c-0.1,0.3-0.1,0.7,0.2,0.8c0.4,0.2,0.5,0.5,0.6,0.8c0,0.1,0.1,0.3,0.2,0.4c0.5,0.3,0.7,0.7,0.8,1.2c0.1,0,0.2,0,0.3,0
			c0.6-1.4,0.9-3,0.9-4.6c0-2.6-0.8-5.1-2.2-7.1C-269.4,390.4-270,390.6-270.5,390.4z"/>
		<path class="st1" d="M-275.3,389c-0.2,0.2-0.2,0.4,0.3,0.6c0.1,0,0.1,0.2-0.1,0.3c-0.1,0-0.3,0-0.4,0.1c-0.3,0.1-0.7,0.1-0.7,0.6
			c0,0.4,0.3,0.8,0.6,0.8c0.5,0,1-0.3,1.1-0.7c0.1-0.5,0.1-0.9,0.5-1c0.3-0.1,0.4-0.3,0.5-0.5c0.3,0.4,0.9,0.3,1.3,0.5
			c-0.1,0.2-0.3,0.1-0.3,0.3c0.2,0.1,0.3,0.1,0.5,0c0.3-0.1,0-0.4,0-0.6c-0.4-0.2-0.9,0-1.1-0.6c0.5-0.2,1.1,0,1.3,0.4
			c0.2,0.3,0.5,0.4,0.8,0.5c0.1-0.3-0.2-0.7,0.2-0.9c0.5,0.7,0.6,0.8,1.3,0.5c-1.3-1.5-2.9-2.8-4.7-3.6c-0.1,0.2-0.4,0.4-0.5,0.6
			c-0.2,0.3-0.2,0.6,0,0.6c0.3,0,0.4,0.2,0.5,0.3c0.2,0,0.3-0.2,0.5-0.2c0.1,0.1,0.2,0.3,0.2,0.5c-0.6,0-0.7,0.3-1.1,0.9
			C-274.8,388.6-275.1,388.8-275.3,389z"/>
		<path class="st1" d="M-275,388.5c0.2-0.2,0.3-0.3,0.1-0.3c-0.6-0.2-0.7-0.5-1-0.8c-0.5,0.2-0.5,0.3-0.3,0.6c0,0.1,0.1,0.1,0.2,0.1
			s0.3,0,0.3,0.1c-0.2,0.3-0.2,0.3-0.1,0.6c0.1,0,0.3,0.1,0.4,0C-275.2,388.7-275.3,388.9-275,388.5z"/>
		<path class="st1" d="M-276.3,388.1c-0.1,0.1-0.1,0-0.2,0.1c-0.2,0.2-0.2,0.4-0.2,0.6c0,0.1,0.1,0.2,0.1,0.1c0.2,0,0.3-0.2,0.5-0.4
			c0.1-0.1,0.1-0.1,0.1-0.3C-276,388.2-276.2,388.1-276.3,388.1z"/>
		<path class="st1" d="M-282.7,392c0.4,0.3,0.5,0.2,0.7-0.4C-282.3,391.6-282.4,392-282.7,392z"/>
	</g>
</g>
</svg>
