<?xml version="1.0" encoding="utf-8"?>
<!-- Generator: Adobe Illustrator 19.1.0, SVG Export Plug-In . SVG Version: 6.00 Build 0)  -->
<svg version="1.1" id="Layer_1" xmlns="http://www.w3.org/2000/svg" xmlns:xlink="http://www.w3.org/1999/xlink" x="0px" y="0px"
	 viewBox="-230 385 149.5 24" style="enable-background:new -230 385 149.5 24;" xml:space="preserve">
<style type="text/css">
	.st0{fill:#F2F2F2;}
</style>
<g id="LogoText">
	<path class="st0" d="M-228.3,409h-1.7v-1.2h1.7c4.8,0,8-3.3,8-8.3V385h1.2v14.5C-219.1,405.2-222.8,409-228.3,409z"/>
	<rect x="-152.2" y="385" class="st0" width="17.5" height="1.2"/>
	<rect x="-144.1" y="388.6" class="st0" width="1.2" height="20.5"/>
	<rect x="-129.7" y="385" class="st0" width="1.2" height="24"/>
	<rect x="-195.5" y="385" class="st0" width="1.2" height="24"/>
	<polygon class="st0" points="-178.6,405.8 -179.8,404 -179.8,385 -178.6,385 	"/>
	<polygon class="st0" points="-180,409 -195.2,385.7 -194.2,385 -178.5,409 	"/>
	<rect x="-97.4" y="385" class="st0" width="1.2" height="24"/>
	<polygon class="st0" points="-80.5,405.8 -81.8,404 -81.8,385 -80.5,385 	"/>
	<polygon class="st0" points="-81.9,409 -97.2,385.7 -96.1,385 -80.4,409 	"/>
	<g>
		<path class="st0" d="M-174.6,397c0-5.9,4.8-10.8,10.8-10.8c3,0,5.8,1.3,7.7,3.3l0.9-0.9c-2.1-2.2-5.2-3.6-8.6-3.6
			c-6.6,0-12,5.4-12,12c0,4.3,2.3,8.1,5.8,10.3l0.6-1.1C-172.5,404.3-174.6,400.9-174.6,397z"/>
		<path class="st0" d="M-156,404.5c-2,2-4.7,3.3-7.8,3.3c-0.9,0-1.8-0.1-2.7-0.3l-0.3,1.2c1,0.2,1.9,0.4,3,0.4
			c3.4,0,6.5-1.4,8.7-3.7L-156,404.5z"/>
	</g>
	<g>
		<path class="st0" d="M-117.4,406.4c-3.2-1.9-5.4-5.4-5.4-9.3c0-5.9,4.8-10.8,10.8-10.8c1.4,0,2.7,0.3,3.8,0.7l0.4-1.2
			c-1.3-0.5-2.7-0.8-4.2-0.8c-6.6,0-12,5.4-12,12c0,4.4,2.4,8.3,6,10.4L-117.4,406.4z"/>
		<path class="st0" d="M-105.6,386.8l-0.7,1c3,1.9,5.1,5.3,5.1,9.1c0,5.9-4.8,10.8-10.8,10.8c-1.2,0-2.4-0.2-3.5-0.6l-0.4,1.2
			c1.2,0.4,2.5,0.7,3.9,0.7c6.6,0,12-5.4,12-12C-100,392.7-102.2,389-105.6,386.8z"/>
	</g>
	<g>
		<path class="st0" d="M-211.3,406.5c-2-1.4-3.2-3.9-3.2-6.7V385h-1.2v14.8c0,3.5,1.8,6.6,4.5,8.1v-1.4H-211.3z"/>
		<path class="st0" d="M-200,385v14.8c0,4.4-3.3,8-7.3,8c-0.7,0-1.4-0.1-2.1-0.3v1.3c0.7,0.2,1.4,0.3,2.1,0.3c4.7,0,8.5-4.1,8.5-9.2
			V385H-200z"/>
	</g>
</g>
</svg>
